<svg width="473" height="24" viewBox="0 0 473 24" fill="none" xmlns="http://www.w3.org/2000/svg">
<path d="M463.817 18.456V0.432L465.257 0.24V11.736L470.921 6.384H472.625L466.697 12L472.817 18.456H470.993L465.257 12.36V18.456H463.817Z" fill="#013D5B"/>
<path d="M460.079 18.024C458.975 18.552 457.791 18.816 456.527 18.816C454.687 18.816 453.271 18.272 452.279 17.184C451.287 16.096 450.791 14.536 450.791 12.504C450.791 10.488 451.255 8.904 452.183 7.752C453.111 6.6 454.383 6.024 455.999 6.024C457.423 6.024 458.543 6.472 459.359 7.368C460.191 8.248 460.607 9.456 460.607 10.992C460.607 11.568 460.559 12.12 460.463 12.648H452.207C452.223 15.992 453.703 17.664 456.647 17.664C457.831 17.664 458.975 17.408 460.079 16.896V18.024ZM455.975 7.152C454.887 7.152 453.999 7.552 453.311 8.352C452.623 9.152 452.255 10.224 452.207 11.568H459.215C459.247 11.312 459.263 11.088 459.263 10.896C459.263 9.712 458.975 8.792 458.399 8.136C457.823 7.48 457.015 7.152 455.975 7.152Z" fill="#013D5B"/>
<path d="M447.844 18.024C446.74 18.552 445.556 18.816 444.292 18.816C442.452 18.816 441.036 18.272 440.044 17.184C439.052 16.096 438.556 14.536 438.556 12.504C438.556 10.488 439.02 8.904 439.948 7.752C440.876 6.6 442.148 6.024 443.764 6.024C445.188 6.024 446.308 6.472 447.124 7.368C447.956 8.248 448.372 9.456 448.372 10.992C448.372 11.568 448.324 12.12 448.228 12.648H439.972C439.988 15.992 441.468 17.664 444.412 17.664C445.596 17.664 446.74 17.408 447.844 16.896V18.024ZM443.74 7.152C442.652 7.152 441.764 7.552 441.076 8.352C440.388 9.152 440.02 10.224 439.972 11.568H446.98C447.012 11.312 447.028 11.088 447.028 10.896C447.028 9.712 446.74 8.792 446.164 8.136C445.588 7.48 444.78 7.152 443.74 7.152Z" fill="#013D5B"/>
<path d="M431.985 18.456L428.745 7.992L425.601 18.456H424.233L420.393 6.384H421.857L424.929 16.68L427.953 6.384H429.561L432.633 16.752L435.681 6.384H437.073L433.353 18.456H431.985Z" fill="#013D5B"/>
<path d="M411.068 18.504L410.972 17.664C409.596 18.432 408.236 18.816 406.892 18.816C405.66 18.816 404.684 18.496 403.964 17.856C403.244 17.2 402.884 16.304 402.884 15.168C402.884 13.968 403.284 13.056 404.084 12.432C404.9 11.792 406.092 11.472 407.66 11.472C408.604 11.472 409.676 11.584 410.876 11.808V10.176C410.876 8.176 409.748 7.176 407.492 7.176C406.9 7.176 406.252 7.256 405.548 7.416C404.844 7.576 404.196 7.784 403.604 8.04V6.912C404.18 6.64 404.836 6.424 405.572 6.264C406.324 6.104 407.036 6.024 407.708 6.024C409.212 6.024 410.348 6.384 411.116 7.104C411.9 7.808 412.292 8.832 412.292 10.176V18.384L411.068 18.504ZM407.228 17.664C407.804 17.664 408.412 17.576 409.052 17.4C409.692 17.224 410.3 16.984 410.876 16.68V12.84C409.868 12.648 408.876 12.552 407.9 12.552C406.668 12.552 405.772 12.76 405.212 13.176C404.652 13.592 404.372 14.248 404.372 15.144C404.372 16.824 405.324 17.664 407.228 17.664Z" fill="#013D5B"/>
<path d="M386.17 16.872C387.37 17.4 388.61 17.664 389.89 17.664C392.05 17.664 393.13 16.824 393.13 15.144C393.13 14.6 392.97 14.16 392.65 13.824C392.346 13.488 391.834 13.208 391.114 12.984L389.29 12.408C388.266 12.088 387.522 11.688 387.058 11.208C386.594 10.712 386.362 10.088 386.362 9.336C386.362 8.328 386.754 7.528 387.538 6.936C388.338 6.328 389.41 6.024 390.754 6.024C391.89 6.024 392.97 6.24 393.994 6.672V7.8C392.922 7.384 391.866 7.176 390.826 7.176C389.882 7.176 389.138 7.368 388.594 7.752C388.066 8.12 387.802 8.632 387.802 9.288C387.802 9.752 387.946 10.128 388.234 10.416C388.538 10.688 389.074 10.952 389.842 11.208L391.738 11.832C392.714 12.152 393.426 12.576 393.874 13.104C394.338 13.632 394.57 14.304 394.57 15.12C394.57 16.304 394.17 17.216 393.37 17.856C392.57 18.496 391.442 18.816 389.986 18.816C388.642 18.816 387.434 18.568 386.362 18.072L386.17 16.872Z" fill="#013D5B"/>
<path d="M374.458 22.608C375.594 22.4 376.482 22 377.122 21.408C377.762 20.816 378.354 19.872 378.898 18.576L374.29 6.384H375.802L379.57 16.968L383.458 6.384H384.898L380.29 18.336C379.858 19.488 379.402 20.424 378.922 21.144C378.458 21.88 377.906 22.456 377.266 22.872C376.626 23.304 375.794 23.632 374.77 23.856L374.458 22.608Z" fill="#013D5B"/>
<path d="M371.037 18.504L370.941 17.664C369.565 18.432 368.205 18.816 366.861 18.816C365.629 18.816 364.653 18.496 363.933 17.856C363.213 17.2 362.853 16.304 362.853 15.168C362.853 13.968 363.253 13.056 364.053 12.432C364.869 11.792 366.061 11.472 367.629 11.472C368.573 11.472 369.645 11.584 370.845 11.808V10.176C370.845 8.176 369.717 7.176 367.461 7.176C366.869 7.176 366.221 7.256 365.517 7.416C364.813 7.576 364.165 7.784 363.573 8.04V6.912C364.149 6.64 364.805 6.424 365.541 6.264C366.293 6.104 367.005 6.024 367.677 6.024C369.181 6.024 370.317 6.384 371.085 7.104C371.869 7.808 372.261 8.832 372.261 10.176V18.384L371.037 18.504ZM367.197 17.664C367.773 17.664 368.381 17.576 369.021 17.4C369.661 17.224 370.269 16.984 370.845 16.68V12.84C369.837 12.648 368.845 12.552 367.869 12.552C366.637 12.552 365.741 12.76 365.181 13.176C364.621 13.592 364.341 14.248 364.341 15.144C364.341 16.824 365.293 17.664 367.197 17.664Z" fill="#013D5B"/>
<path d="M359.621 0.24V18.384L358.397 18.504L358.301 17.664C356.941 18.432 355.693 18.816 354.557 18.816C352.989 18.816 351.757 18.272 350.861 17.184C349.965 16.08 349.517 14.56 349.517 12.624C349.517 10.496 350.021 8.864 351.029 7.728C352.053 6.592 353.525 6.024 355.445 6.024C356.437 6.024 357.349 6.152 358.181 6.408V0.432L359.621 0.24ZM354.749 17.664C355.277 17.664 355.845 17.576 356.453 17.4C357.061 17.224 357.637 16.984 358.181 16.68V7.56C357.349 7.304 356.477 7.176 355.565 7.176C354.029 7.176 352.885 7.624 352.133 8.52C351.397 9.4 351.029 10.76 351.029 12.6C351.029 14.248 351.341 15.504 351.965 16.368C352.605 17.232 353.533 17.664 354.749 17.664Z" fill="#013D5B"/>
<path d="M339.013 18.456V10.128C339.013 8.16 338.013 7.176 336.013 7.176C335.485 7.176 334.901 7.264 334.261 7.44C333.637 7.616 333.021 7.856 332.413 8.16V18.456H330.973V6.456L332.197 6.336L332.293 7.176C333.685 6.408 335.045 6.024 336.373 6.024C337.669 6.024 338.669 6.36 339.373 7.032C340.093 7.704 340.453 8.656 340.453 9.888V18.456H339.013Z" fill="#013D5B"/>
<path d="M327.235 18.024C326.131 18.552 324.947 18.816 323.683 18.816C321.843 18.816 320.427 18.272 319.435 17.184C318.443 16.096 317.947 14.536 317.947 12.504C317.947 10.488 318.411 8.904 319.339 7.752C320.267 6.6 321.539 6.024 323.155 6.024C324.579 6.024 325.699 6.472 326.515 7.368C327.347 8.248 327.763 9.456 327.763 10.992C327.763 11.568 327.715 12.12 327.619 12.648H319.363C319.379 15.992 320.859 17.664 323.803 17.664C324.987 17.664 326.131 17.408 327.235 16.896V18.024ZM323.131 7.152C322.043 7.152 321.155 7.552 320.467 8.352C319.779 9.152 319.411 10.224 319.363 11.568H326.371C326.403 11.312 326.419 11.088 326.419 10.896C326.419 9.712 326.131 8.792 325.555 8.136C324.979 7.48 324.171 7.152 323.131 7.152Z" fill="#013D5B"/>
<path d="M310.717 18.456L306.157 6.384H307.669L311.437 16.92L315.325 6.384H316.765L312.109 18.456H310.717Z" fill="#013D5B"/>
<path d="M304.243 18.024C303.139 18.552 301.955 18.816 300.691 18.816C298.851 18.816 297.435 18.272 296.443 17.184C295.451 16.096 294.955 14.536 294.955 12.504C294.955 10.488 295.419 8.904 296.347 7.752C297.275 6.6 298.547 6.024 300.163 6.024C301.587 6.024 302.707 6.472 303.523 7.368C304.355 8.248 304.771 9.456 304.771 10.992C304.771 11.568 304.723 12.12 304.627 12.648H296.371C296.387 15.992 297.867 17.664 300.811 17.664C301.995 17.664 303.139 17.408 304.243 16.896V18.024ZM300.139 7.152C299.051 7.152 298.163 7.552 297.475 8.352C296.787 9.152 296.419 10.224 296.371 11.568H303.379C303.411 11.312 303.427 11.088 303.427 10.896C303.427 9.712 303.139 8.792 302.563 8.136C301.987 7.48 301.179 7.152 300.139 7.152Z" fill="#013D5B"/>
<path d="M284.24 16.872C285.44 17.4 286.68 17.664 287.96 17.664C290.12 17.664 291.2 16.824 291.2 15.144C291.2 14.6 291.04 14.16 290.72 13.824C290.416 13.488 289.904 13.208 289.184 12.984L287.36 12.408C286.336 12.088 285.592 11.688 285.128 11.208C284.664 10.712 284.432 10.088 284.432 9.336C284.432 8.328 284.824 7.528 285.608 6.936C286.408 6.328 287.48 6.024 288.824 6.024C289.96 6.024 291.04 6.24 292.064 6.672V7.8C290.992 7.384 289.936 7.176 288.896 7.176C287.952 7.176 287.208 7.368 286.664 7.752C286.136 8.12 285.872 8.632 285.872 9.288C285.872 9.752 286.016 10.128 286.304 10.416C286.608 10.688 287.144 10.952 287.912 11.208L289.808 11.832C290.784 12.152 291.496 12.576 291.944 13.104C292.408 13.632 292.64 14.304 292.64 15.12C292.64 16.304 292.24 17.216 291.44 17.856C290.64 18.496 289.512 18.816 288.056 18.816C286.712 18.816 285.504 18.568 284.432 18.072L284.24 16.872Z" fill="#013D5B"/>
<path d="M273.88 18.456V10.128C273.88 8.16 272.88 7.176 270.88 7.176C270.352 7.176 269.768 7.264 269.128 7.44C268.504 7.616 267.888 7.856 267.28 8.16V18.456H265.84V6.456L267.064 6.336L267.16 7.176C268.552 6.408 269.912 6.024 271.24 6.024C272.536 6.024 273.536 6.36 274.24 7.032C274.96 7.704 275.32 8.656 275.32 9.888V18.456H273.88Z" fill="#013D5B"/>
<path d="M262.102 18.024C260.998 18.552 259.814 18.816 258.55 18.816C256.71 18.816 255.294 18.272 254.302 17.184C253.31 16.096 252.814 14.536 252.814 12.504C252.814 10.488 253.278 8.904 254.206 7.752C255.134 6.6 256.406 6.024 258.022 6.024C259.446 6.024 260.566 6.472 261.382 7.368C262.214 8.248 262.63 9.456 262.63 10.992C262.63 11.568 262.582 12.12 262.486 12.648H254.23C254.246 15.992 255.726 17.664 258.67 17.664C259.854 17.664 260.998 17.408 262.102 16.896V18.024ZM257.998 7.152C256.91 7.152 256.022 7.552 255.334 8.352C254.646 9.152 254.278 10.224 254.23 11.568H261.238C261.27 11.312 261.286 11.088 261.286 10.896C261.286 9.712 260.998 8.792 260.422 8.136C259.846 7.48 259.038 7.152 257.998 7.152Z" fill="#013D5B"/>
<path d="M240.27 23.808V6.456L241.494 6.336L241.59 7.176C242.95 6.408 244.198 6.024 245.334 6.024C246.902 6.024 248.134 6.576 249.03 7.68C249.926 8.768 250.374 10.28 250.374 12.216C250.374 14.344 249.862 15.976 248.838 17.112C247.83 18.248 246.366 18.816 244.446 18.816C243.454 18.816 242.542 18.688 241.71 18.432V23.616L240.27 23.808ZM245.142 7.176C244.614 7.176 244.046 7.264 243.438 7.44C242.83 7.616 242.254 7.856 241.71 8.16V17.28C242.542 17.536 243.414 17.664 244.326 17.664C245.862 17.664 246.998 17.224 247.734 16.344C248.486 15.448 248.862 14.08 248.862 12.24C248.862 10.592 248.542 9.336 247.902 8.472C247.278 7.608 246.358 7.176 245.142 7.176Z" fill="#013D5B"/>
<path d="M231.75 18.816C230.006 18.816 228.686 18.28 227.79 17.208C226.91 16.12 226.47 14.52 226.47 12.408C226.47 10.312 226.91 8.728 227.79 7.656C228.686 6.568 230.006 6.024 231.75 6.024C233.494 6.024 234.806 6.568 235.686 7.656C236.582 8.728 237.03 10.312 237.03 12.408C237.03 14.52 236.582 16.12 235.686 17.208C234.806 18.28 233.494 18.816 231.75 18.816ZM231.75 17.664C233.062 17.664 234.014 17.248 234.606 16.416C235.214 15.568 235.518 14.232 235.518 12.408C235.518 10.6 235.214 9.28 234.606 8.448C234.014 7.6 233.062 7.176 231.75 7.176C230.438 7.176 229.478 7.6 228.87 8.448C228.278 9.28 227.982 10.6 227.982 12.408C227.982 14.232 228.278 15.568 228.87 16.416C229.478 17.248 230.438 17.664 231.75 17.664Z" fill="#013D5B"/>
<path d="M217.524 18.024C216.42 18.552 215.236 18.816 213.972 18.816C212.132 18.816 210.716 18.272 209.724 17.184C208.732 16.096 208.236 14.536 208.236 12.504C208.236 10.488 208.7 8.904 209.628 7.752C210.556 6.6 211.828 6.024 213.444 6.024C214.868 6.024 215.988 6.472 216.804 7.368C217.636 8.248 218.052 9.456 218.052 10.992C218.052 11.568 218.004 12.12 217.908 12.648H209.652C209.668 15.992 211.148 17.664 214.092 17.664C215.276 17.664 216.42 17.408 217.524 16.896V18.024ZM213.42 7.152C212.332 7.152 211.444 7.552 210.756 8.352C210.068 9.152 209.7 10.224 209.652 11.568H216.66C216.692 11.312 216.708 11.088 216.708 10.896C216.708 9.712 216.42 8.792 215.844 8.136C215.268 7.48 214.46 7.152 213.42 7.152Z" fill="#013D5B"/>
<path d="M201.012 18.456V6.456L202.236 6.336L202.356 7.416C203.428 6.536 204.572 6.096 205.788 6.096C206.22 6.096 206.564 6.144 206.82 6.24V7.416C206.404 7.32 206.036 7.272 205.716 7.272C204.58 7.272 203.492 7.68 202.452 8.496V18.456H201.012Z" fill="#013D5B"/>
<path d="M195.936 18.504L195.84 17.664C194.464 18.432 193.104 18.816 191.76 18.816C190.528 18.816 189.552 18.496 188.832 17.856C188.112 17.2 187.752 16.304 187.752 15.168C187.752 13.968 188.152 13.056 188.952 12.432C189.768 11.792 190.96 11.472 192.528 11.472C193.472 11.472 194.544 11.584 195.744 11.808V10.176C195.744 8.176 194.616 7.176 192.36 7.176C191.768 7.176 191.12 7.256 190.416 7.416C189.712 7.576 189.064 7.784 188.472 8.04V6.912C189.048 6.64 189.704 6.424 190.44 6.264C191.192 6.104 191.904 6.024 192.576 6.024C194.08 6.024 195.216 6.384 195.984 7.104C196.768 7.808 197.16 8.832 197.16 10.176V18.384L195.936 18.504ZM192.096 17.664C192.672 17.664 193.28 17.576 193.92 17.4C194.56 17.224 195.168 16.984 195.744 16.68V12.84C194.736 12.648 193.744 12.552 192.768 12.552C191.536 12.552 190.64 12.76 190.08 13.176C189.52 13.592 189.24 14.248 189.24 15.144C189.24 16.824 190.192 17.664 192.096 17.664Z" fill="#013D5B"/>
<path d="M171.037 16.872C172.237 17.4 173.477 17.664 174.757 17.664C176.917 17.664 177.997 16.824 177.997 15.144C177.997 14.6 177.837 14.16 177.517 13.824C177.213 13.488 176.701 13.208 175.981 12.984L174.157 12.408C173.133 12.088 172.389 11.688 171.925 11.208C171.461 10.712 171.229 10.088 171.229 9.336C171.229 8.328 171.621 7.528 172.405 6.936C173.205 6.328 174.277 6.024 175.621 6.024C176.757 6.024 177.837 6.24 178.861 6.672V7.8C177.789 7.384 176.733 7.176 175.693 7.176C174.749 7.176 174.005 7.368 173.461 7.752C172.933 8.12 172.669 8.632 172.669 9.288C172.669 9.752 172.813 10.128 173.101 10.416C173.405 10.688 173.941 10.952 174.709 11.208L176.605 11.832C177.581 12.152 178.293 12.576 178.741 13.104C179.205 13.632 179.437 14.304 179.437 15.12C179.437 16.304 179.037 17.216 178.237 17.856C177.437 18.496 176.309 18.816 174.853 18.816C173.509 18.816 172.301 18.568 171.229 18.072L171.037 16.872Z" fill="#013D5B"/>
<path d="M168.235 18.024C167.131 18.552 165.947 18.816 164.683 18.816C162.843 18.816 161.427 18.272 160.435 17.184C159.443 16.096 158.947 14.536 158.947 12.504C158.947 10.488 159.411 8.904 160.339 7.752C161.267 6.6 162.539 6.024 164.155 6.024C165.579 6.024 166.699 6.472 167.515 7.368C168.347 8.248 168.763 9.456 168.763 10.992C168.763 11.568 168.715 12.12 168.619 12.648H160.363C160.379 15.992 161.859 17.664 164.803 17.664C165.987 17.664 167.131 17.408 168.235 16.896V18.024ZM164.131 7.152C163.043 7.152 162.155 7.552 161.467 8.352C160.779 9.152 160.411 10.224 160.363 11.568H167.371C167.403 11.312 167.419 11.088 167.419 10.896C167.419 9.712 167.131 8.792 166.555 8.136C165.979 7.48 165.171 7.152 164.131 7.152ZM162.787 4.392L165.451 1.104H167.275L164.083 4.392H162.787Z" fill="#013D5B"/>
<path d="M152.622 18.456V7.488H150.798V6.456L152.622 6.384V3.672C152.622 2.488 152.91 1.584 153.486 0.960001C154.078 0.32 154.934 0 156.054 0C156.662 0 157.278 0.112 157.902 0.336V1.392C157.326 1.216 156.774 1.128 156.246 1.128C155.494 1.128 154.942 1.328 154.59 1.728C154.238 2.112 154.062 2.72 154.062 3.552V6.384H157.302V7.488H154.062V18.456H152.622Z" fill="#013D5B"/>
<path d="M147.209 18.504L147.113 17.664C145.737 18.432 144.377 18.816 143.033 18.816C141.801 18.816 140.825 18.496 140.105 17.856C139.385 17.2 139.025 16.304 139.025 15.168C139.025 13.968 139.425 13.056 140.225 12.432C141.041 11.792 142.233 11.472 143.801 11.472C144.745 11.472 145.817 11.584 147.017 11.808V10.176C147.017 8.176 145.889 7.176 143.633 7.176C143.041 7.176 142.393 7.256 141.689 7.416C140.985 7.576 140.337 7.784 139.745 8.04V6.912C140.321 6.64 140.977 6.424 141.713 6.264C142.465 6.104 143.177 6.024 143.849 6.024C145.353 6.024 146.489 6.384 147.257 7.104C148.041 7.808 148.433 8.832 148.433 10.176V18.384L147.209 18.504ZM143.369 17.664C143.945 17.664 144.553 17.576 145.193 17.4C145.833 17.224 146.441 16.984 147.017 16.68V12.84C146.009 12.648 145.017 12.552 144.041 12.552C142.809 12.552 141.913 12.76 141.353 13.176C140.793 13.592 140.513 14.248 140.513 15.144C140.513 16.824 141.465 17.664 143.369 17.664Z" fill="#013D5B"/>
<path d="M136.526 17.784C135.15 18.472 133.71 18.816 132.206 18.816C130.078 18.816 128.414 18.048 127.214 16.512C126.014 14.96 125.414 12.808 125.414 10.056C125.414 7.304 126.014 5.16 127.214 3.624C128.414 2.072 130.078 1.296 132.206 1.296C133.662 1.296 135.078 1.64 136.454 2.328V3.552C135.718 3.2 135.03 2.944 134.39 2.784C133.75 2.624 133.086 2.544 132.398 2.544C130.622 2.544 129.278 3.184 128.366 4.464C127.47 5.728 127.022 7.592 127.022 10.056C127.022 12.52 127.47 14.392 128.366 15.672C129.278 16.936 130.622 17.568 132.398 17.568C133.758 17.568 135.134 17.232 136.526 16.56V17.784Z" fill="#013D5B"/>
<path d="M116.204 18.024C115.1 18.552 113.916 18.816 112.652 18.816C110.812 18.816 109.396 18.272 108.404 17.184C107.412 16.096 106.916 14.536 106.916 12.504C106.916 10.488 107.38 8.904 108.308 7.752C109.236 6.6 110.508 6.024 112.124 6.024C113.548 6.024 114.668 6.472 115.484 7.368C116.316 8.248 116.732 9.456 116.732 10.992C116.732 11.568 116.684 12.12 116.588 12.648H108.332C108.348 15.992 109.828 17.664 112.772 17.664C113.956 17.664 115.1 17.408 116.204 16.896V18.024ZM112.1 7.152C111.012 7.152 110.124 7.552 109.436 8.352C108.748 9.152 108.38 10.224 108.332 11.568H115.34C115.372 11.312 115.388 11.088 115.388 10.896C115.388 9.712 115.1 8.792 114.524 8.136C113.948 7.48 113.14 7.152 112.1 7.152Z" fill="#013D5B"/>
<path d="M102.412 18.456V10.128C102.412 8.16 101.412 7.176 99.4117 7.176C98.8837 7.176 98.2997 7.264 97.6597 7.44C97.0357 7.616 96.4197 7.856 95.8117 8.16V18.456H94.3717V6.456L95.5957 6.336L95.6917 7.176C97.0837 6.408 98.4437 6.024 99.7717 6.024C101.068 6.024 102.068 6.36 102.772 7.032C103.492 7.704 103.852 8.656 103.852 9.888V18.456H102.412Z" fill="#013D5B"/>
<path d="M83.9968 17.592C87.5168 17.592 89.2768 15.08 89.2768 10.056C89.2768 5.032 87.5168 2.52 83.9968 2.52C80.4768 2.52 78.7168 5.032 78.7168 10.056C78.7168 15.08 80.4768 17.592 83.9968 17.592ZM83.9968 18.816C81.7888 18.816 80.0928 18.056 78.9088 16.536C77.7248 15.016 77.1328 12.856 77.1328 10.056C77.1328 7.256 77.7248 5.096 78.9088 3.576C80.0928 2.056 81.7888 1.296 83.9968 1.296C86.2048 1.296 87.9008 2.056 89.0848 3.576C90.2688 5.096 90.8608 7.256 90.8608 10.056C90.8608 12.856 90.2688 15.016 89.0848 16.536C87.9008 18.056 86.2048 18.816 83.9968 18.816Z" fill="#013D5B"/>
<path d="M66.1998 18.456V0.432L67.6398 0.24V18.456H66.1998Z" fill="#013D5B"/>
<path d="M61.1231 18.504L61.0271 17.664C59.6511 18.432 58.2911 18.816 56.9471 18.816C55.7151 18.816 54.7391 18.496 54.0191 17.856C53.2991 17.2 52.9391 16.304 52.9391 15.168C52.9391 13.968 53.3391 13.056 54.1391 12.432C54.9551 11.792 56.1471 11.472 57.7151 11.472C58.6591 11.472 59.7311 11.584 60.9311 11.808V10.176C60.9311 8.176 59.8031 7.176 57.5471 7.176C56.9551 7.176 56.3071 7.256 55.6031 7.416C54.8991 7.576 54.2511 7.784 53.6591 8.04V6.912C54.2351 6.64 54.8911 6.424 55.6271 6.264C56.3791 6.104 57.0911 6.024 57.7631 6.024C59.2671 6.024 60.4031 6.384 61.1711 7.104C61.9551 7.808 62.3471 8.832 62.3471 10.176V18.384L61.1231 18.504ZM57.2831 17.664C57.8591 17.664 58.4671 17.576 59.1071 17.4C59.7471 17.224 60.3551 16.984 60.9311 16.68V12.84C59.9231 12.648 58.9311 12.552 57.9551 12.552C56.7231 12.552 55.8271 12.76 55.2671 13.176C54.7071 13.592 54.4271 14.248 54.4271 15.144C54.4271 16.824 55.3791 17.664 57.2831 17.664Z" fill="#013D5B"/>
<path d="M47.4447 7.488V15.168C47.4447 16 47.6207 16.616 47.9727 17.016C48.3247 17.4 48.8687 17.592 49.6047 17.592C50.0847 17.592 50.6287 17.504 51.2367 17.328V18.384C50.5647 18.608 49.9487 18.72 49.3887 18.72C48.2847 18.72 47.4447 18.424 46.8687 17.832C46.2927 17.224 46.0047 16.328 46.0047 15.144V7.488H44.1807V6.456L46.0527 6.384L46.1967 3.36L47.4447 3.216V6.384H51.0687V7.488H47.4447Z" fill="#013D5B"/>
<path d="M40.2077 18.456V6.504L41.6477 6.312V18.456H40.2077ZM40.9277 3.456C40.6077 3.456 40.3437 3.36 40.1357 3.168C39.9437 2.976 39.8477 2.712 39.8477 2.376C39.8477 2.04 39.9437 1.776 40.1357 1.584C40.3437 1.392 40.6077 1.296 40.9277 1.296C41.2477 1.296 41.5037 1.392 41.6957 1.584C41.9037 1.776 42.0077 2.04 42.0077 2.376C42.0077 2.712 41.9037 2.976 41.6957 3.168C41.5037 3.36 41.2477 3.456 40.9277 3.456Z" fill="#013D5B"/>
<path d="M26.8717 23.808V6.456L28.0957 6.336L28.1917 7.176C29.5517 6.408 30.7997 6.024 31.9357 6.024C33.5037 6.024 34.7357 6.576 35.6317 7.68C36.5277 8.768 36.9757 10.28 36.9757 12.216C36.9757 14.344 36.4637 15.976 35.4397 17.112C34.4317 18.248 32.9677 18.816 31.0477 18.816C30.0557 18.816 29.1437 18.688 28.3117 18.432V23.616L26.8717 23.808ZM31.7437 7.176C31.2157 7.176 30.6477 7.264 30.0397 7.44C29.4317 7.616 28.8557 7.856 28.3117 8.16V17.28C29.1437 17.536 30.0157 17.664 30.9277 17.664C32.4637 17.664 33.5997 17.224 34.3357 16.344C35.0877 15.448 35.4637 14.08 35.4637 12.24C35.4637 10.592 35.1437 9.336 34.5037 8.472C33.8797 7.608 32.9597 7.176 31.7437 7.176Z" fill="#013D5B"/>
<path d="M21.795 18.504L21.699 17.664C20.323 18.432 18.963 18.816 17.619 18.816C16.387 18.816 15.411 18.496 14.691 17.856C13.971 17.2 13.611 16.304 13.611 15.168C13.611 13.968 14.011 13.056 14.811 12.432C15.627 11.792 16.819 11.472 18.387 11.472C19.331 11.472 20.403 11.584 21.603 11.808V10.176C21.603 8.176 20.475 7.176 18.219 7.176C17.627 7.176 16.979 7.256 16.275 7.416C15.571 7.576 14.923 7.784 14.331 8.04V6.912C14.907 6.64 15.563 6.424 16.299 6.264C17.051 6.104 17.763 6.024 18.435 6.024C19.939 6.024 21.075 6.384 21.843 7.104C22.627 7.808 23.019 8.832 23.019 10.176V18.384L21.795 18.504ZM17.955 17.664C18.531 17.664 19.139 17.576 19.779 17.4C20.419 17.224 21.027 16.984 21.603 16.68V12.84C20.595 12.648 19.603 12.552 18.627 12.552C17.395 12.552 16.499 12.76 15.939 13.176C15.379 13.592 15.099 14.248 15.099 15.144C15.099 16.824 16.051 17.664 17.955 17.664Z" fill="#013D5B"/>
<path d="M11.112 17.784C9.736 18.472 8.296 18.816 6.792 18.816C4.664 18.816 3 18.048 1.8 16.512C0.600003 14.96 0 12.808 0 10.056C0 7.304 0.600003 5.16 1.8 3.624C3 2.072 4.664 1.296 6.792 1.296C8.248 1.296 9.664 1.64 11.04 2.328V3.552C10.304 3.2 9.616 2.944 8.976 2.784C8.336 2.624 7.672 2.544 6.984 2.544C5.208 2.544 3.864 3.184 2.952 4.464C2.056 5.728 1.608 7.592 1.608 10.056C1.608 12.52 2.056 14.392 2.952 15.672C3.864 16.936 5.208 17.568 6.984 17.568C8.344 17.568 9.72 17.232 11.112 16.56V17.784Z" fill="#013D5B"/>
</svg>
