<svg width="592" height="30" viewBox="0 0 592 30" fill="none" xmlns="http://www.w3.org/2000/svg">
<path d="M579.771 23.07V0.539999L581.571 0.299999V14.67L588.651 7.98H590.781L583.371 15L591.021 23.07H588.741L581.571 15.45V23.07H579.771Z" fill="#013D5B"/>
<path d="M575.099 22.53C573.719 23.19 572.239 23.52 570.659 23.52C568.359 23.52 566.589 22.84 565.349 21.48C564.109 20.12 563.489 18.17 563.489 15.63C563.489 13.11 564.069 11.13 565.229 9.69C566.389 8.25 567.978 7.53 569.998 7.53C571.778 7.53 573.178 8.09 574.198 9.21C575.238 10.31 575.758 11.82 575.758 13.74C575.758 14.46 575.698 15.15 575.578 15.81H565.258C565.278 19.99 567.128 22.08 570.808 22.08C572.288 22.08 573.719 21.76 575.099 21.12V22.53ZM569.969 8.94C568.609 8.94 567.498 9.44 566.638 10.44C565.778 11.44 565.318 12.78 565.258 14.46H574.018C574.058 14.14 574.078 13.86 574.078 13.62C574.078 12.14 573.718 10.99 572.998 10.17C572.278 9.35 571.269 8.94 569.969 8.94Z" fill="#013D5B"/>
<path d="M559.806 22.53C558.426 23.19 556.946 23.52 555.366 23.52C553.066 23.52 551.296 22.84 550.056 21.48C548.816 20.12 548.196 18.17 548.196 15.63C548.196 13.11 548.776 11.13 549.936 9.69C551.096 8.25 552.686 7.53 554.706 7.53C556.486 7.53 557.886 8.09 558.906 9.21C559.946 10.31 560.466 11.82 560.466 13.74C560.466 14.46 560.406 15.15 560.286 15.81H549.966C549.986 19.99 551.836 22.08 555.516 22.08C556.996 22.08 558.426 21.76 559.806 21.12V22.53ZM554.676 8.94C553.316 8.94 552.206 9.44 551.346 10.44C550.486 11.44 550.026 12.78 549.966 14.46H558.726C558.766 14.14 558.786 13.86 558.786 13.62C558.786 12.14 558.426 10.99 557.706 10.17C556.986 9.35 555.976 8.94 554.676 8.94Z" fill="#013D5B"/>
<path d="M539.982 23.07L535.932 9.99L532.002 23.07H530.292L525.492 7.98H527.322L531.162 20.85L534.942 7.98H536.952L540.792 20.94L544.602 7.98H546.342L541.692 23.07H539.982Z" fill="#013D5B"/>
<path d="M513.836 23.13L513.716 22.08C511.996 23.04 510.296 23.52 508.616 23.52C507.076 23.52 505.856 23.12 504.956 22.32C504.056 21.5 503.606 20.38 503.606 18.96C503.606 17.46 504.106 16.32 505.106 15.54C506.126 14.74 507.616 14.34 509.576 14.34C510.756 14.34 512.096 14.48 513.596 14.76V12.72C513.596 10.22 512.186 8.97 509.366 8.97C508.626 8.97 507.816 9.07 506.936 9.27C506.056 9.47 505.246 9.73 504.506 10.05V8.64C505.226 8.3 506.046 8.03 506.966 7.83C507.906 7.63 508.796 7.53 509.636 7.53C511.516 7.53 512.936 7.98 513.896 8.88C514.876 9.76 515.366 11.04 515.366 12.72V22.98L513.836 23.13ZM509.036 22.08C509.756 22.08 510.516 21.97 511.316 21.75C512.116 21.53 512.876 21.23 513.596 20.85V16.05C512.336 15.81 511.096 15.69 509.876 15.69C508.336 15.69 507.216 15.95 506.516 16.47C505.816 16.99 505.466 17.81 505.466 18.93C505.466 21.03 506.656 22.08 509.036 22.08Z" fill="#013D5B"/>
<path d="M482.713 21.09C484.213 21.75 485.763 22.08 487.363 22.08C490.063 22.08 491.413 21.03 491.413 18.93C491.413 18.25 491.213 17.7 490.813 17.28C490.433 16.86 489.793 16.51 488.893 16.23L486.613 15.51C485.333 15.11 484.403 14.61 483.823 14.01C483.243 13.39 482.953 12.61 482.953 11.67C482.953 10.41 483.443 9.41 484.423 8.67C485.423 7.91 486.763 7.53 488.443 7.53C489.863 7.53 491.213 7.8 492.493 8.34V9.75C491.153 9.23 489.833 8.97 488.533 8.97C487.353 8.97 486.423 9.21 485.743 9.69C485.083 10.15 484.753 10.79 484.753 11.61C484.753 12.19 484.933 12.66 485.293 13.02C485.673 13.36 486.343 13.69 487.303 14.01L489.673 14.79C490.893 15.19 491.783 15.72 492.343 16.38C492.923 17.04 493.213 17.88 493.213 18.9C493.213 20.38 492.713 21.52 491.713 22.32C490.713 23.12 489.303 23.52 487.483 23.52C485.803 23.52 484.293 23.21 482.953 22.59L482.713 21.09Z" fill="#013D5B"/>
<path d="M468.073 28.26C469.493 28 470.603 27.5 471.403 26.76C472.203 26.02 472.943 24.84 473.623 23.22L467.863 7.98H469.753L474.463 21.21L479.323 7.98H481.123L475.363 22.92C474.823 24.36 474.253 25.53 473.653 26.43C473.073 27.35 472.383 28.07 471.583 28.59C470.783 29.13 469.743 29.54 468.463 29.82L468.073 28.26Z" fill="#013D5B"/>
<path d="M463.797 23.13L463.677 22.08C461.957 23.04 460.257 23.52 458.577 23.52C457.037 23.52 455.817 23.12 454.917 22.32C454.017 21.5 453.567 20.38 453.567 18.96C453.567 17.46 454.067 16.32 455.067 15.54C456.087 14.74 457.577 14.34 459.537 14.34C460.717 14.34 462.057 14.48 463.557 14.76V12.72C463.557 10.22 462.147 8.97 459.327 8.97C458.587 8.97 457.777 9.07 456.897 9.27C456.017 9.47 455.207 9.73 454.467 10.05V8.64C455.187 8.3 456.007 8.03 456.927 7.83C457.867 7.63 458.757 7.53 459.597 7.53C461.477 7.53 462.897 7.98 463.857 8.88C464.837 9.76 465.327 11.04 465.327 12.72V22.98L463.797 23.13ZM458.997 22.08C459.717 22.08 460.477 21.97 461.277 21.75C462.077 21.53 462.837 21.23 463.557 20.85V16.05C462.297 15.81 461.057 15.69 459.837 15.69C458.297 15.69 457.177 15.95 456.477 16.47C455.777 16.99 455.427 17.81 455.427 18.93C455.427 21.03 456.617 22.08 458.997 22.08Z" fill="#013D5B"/>
<path d="M449.527 0.299999V22.98L447.997 23.13L447.877 22.08C446.177 23.04 444.617 23.52 443.197 23.52C441.237 23.52 439.697 22.84 438.577 21.48C437.457 20.1 436.897 18.2 436.897 15.78C436.897 13.12 437.527 11.08 438.787 9.66C440.067 8.24 441.907 7.53 444.307 7.53C445.547 7.53 446.687 7.69 447.727 8.01V0.539999L449.527 0.299999ZM443.437 22.08C444.097 22.08 444.807 21.97 445.567 21.75C446.327 21.53 447.047 21.23 447.727 20.85V9.45C446.687 9.13 445.597 8.97 444.457 8.97C442.537 8.97 441.107 9.53 440.167 10.65C439.247 11.75 438.787 13.45 438.787 15.75C438.787 17.81 439.177 19.38 439.957 20.46C440.757 21.54 441.917 22.08 443.437 22.08Z" fill="#013D5B"/>
<path d="M423.767 23.07V12.66C423.767 10.2 422.517 8.97 420.017 8.97C419.357 8.97 418.627 9.08 417.827 9.3C417.047 9.52 416.277 9.82 415.517 10.2V23.07H413.717V8.07L415.247 7.92L415.367 8.97C417.107 8.01 418.807 7.53 420.467 7.53C422.087 7.53 423.337 7.95 424.217 8.79C425.117 9.63 425.567 10.82 425.567 12.36V23.07H423.767Z" fill="#013D5B"/>
<path d="M409.044 22.53C407.664 23.19 406.184 23.52 404.604 23.52C402.304 23.52 400.534 22.84 399.294 21.48C398.054 20.12 397.434 18.17 397.434 15.63C397.434 13.11 398.014 11.13 399.174 9.69C400.334 8.25 401.924 7.53 403.944 7.53C405.724 7.53 407.124 8.09 408.144 9.21C409.184 10.31 409.704 11.82 409.704 13.74C409.704 14.46 409.644 15.15 409.524 15.81H399.204C399.224 19.99 401.074 22.08 404.754 22.08C406.234 22.08 407.664 21.76 409.044 21.12V22.53ZM403.914 8.94C402.554 8.94 401.444 9.44 400.584 10.44C399.724 11.44 399.264 12.78 399.204 14.46H407.964C408.004 14.14 408.024 13.86 408.024 13.62C408.024 12.14 407.664 10.99 406.944 10.17C406.224 9.35 405.214 8.94 403.914 8.94Z" fill="#013D5B"/>
<path d="M388.397 23.07L382.697 7.98H384.587L389.297 21.15L394.157 7.98H395.957L390.137 23.07H388.397Z" fill="#013D5B"/>
<path d="M380.304 22.53C378.924 23.19 377.444 23.52 375.864 23.52C373.564 23.52 371.794 22.84 370.554 21.48C369.314 20.12 368.694 18.17 368.694 15.63C368.694 13.11 369.274 11.13 370.434 9.69C371.594 8.25 373.184 7.53 375.204 7.53C376.984 7.53 378.384 8.09 379.404 9.21C380.444 10.31 380.964 11.82 380.964 13.74C380.964 14.46 380.904 15.15 380.784 15.81H370.464C370.484 19.99 372.334 22.08 376.014 22.08C377.494 22.08 378.924 21.76 380.304 21.12V22.53ZM375.174 8.94C373.814 8.94 372.704 9.44 371.844 10.44C370.984 11.44 370.524 12.78 370.464 14.46H379.224C379.264 14.14 379.284 13.86 379.284 13.62C379.284 12.14 378.924 10.99 378.204 10.17C377.484 9.35 376.474 8.94 375.174 8.94Z" fill="#013D5B"/>
<path d="M355.301 21.09C356.801 21.75 358.351 22.08 359.951 22.08C362.651 22.08 364.001 21.03 364.001 18.93C364.001 18.25 363.801 17.7 363.401 17.28C363.021 16.86 362.381 16.51 361.481 16.23L359.201 15.51C357.921 15.11 356.991 14.61 356.411 14.01C355.831 13.39 355.541 12.61 355.541 11.67C355.541 10.41 356.031 9.41 357.011 8.67C358.011 7.91 359.351 7.53 361.031 7.53C362.451 7.53 363.801 7.8 365.081 8.34V9.75C363.741 9.23 362.421 8.97 361.121 8.97C359.941 8.97 359.011 9.21 358.331 9.69C357.671 10.15 357.341 10.79 357.341 11.61C357.341 12.19 357.521 12.66 357.881 13.02C358.261 13.36 358.931 13.69 359.891 14.01L362.261 14.79C363.481 15.19 364.371 15.72 364.931 16.38C365.511 17.04 365.801 17.88 365.801 18.9C365.801 20.38 365.301 21.52 364.301 22.32C363.301 23.12 361.891 23.52 360.071 23.52C358.391 23.52 356.881 23.21 355.541 22.59L355.301 21.09Z" fill="#013D5B"/>
<path d="M342.351 23.07V12.66C342.351 10.2 341.101 8.97 338.601 8.97C337.941 8.97 337.211 9.08 336.411 9.3C335.631 9.52 334.861 9.82 334.101 10.2V23.07H332.301V8.07L333.831 7.92L333.951 8.97C335.691 8.01 337.391 7.53 339.051 7.53C340.671 7.53 341.921 7.95 342.801 8.79C343.701 9.63 344.151 10.82 344.151 12.36V23.07H342.351Z" fill="#013D5B"/>
<path d="M327.628 22.53C326.248 23.19 324.768 23.52 323.188 23.52C320.888 23.52 319.118 22.84 317.878 21.48C316.638 20.12 316.018 18.17 316.018 15.63C316.018 13.11 316.598 11.13 317.758 9.69C318.918 8.25 320.508 7.53 322.528 7.53C324.308 7.53 325.708 8.09 326.728 9.21C327.768 10.31 328.288 11.82 328.288 13.74C328.288 14.46 328.228 15.15 328.108 15.81H317.788C317.808 19.99 319.658 22.08 323.338 22.08C324.818 22.08 326.248 21.76 327.628 21.12V22.53ZM322.498 8.94C321.138 8.94 320.028 9.44 319.168 10.44C318.308 11.44 317.848 12.78 317.788 14.46H326.548C326.588 14.14 326.608 13.86 326.608 13.62C326.608 12.14 326.248 10.99 325.528 10.17C324.808 9.35 323.798 8.94 322.498 8.94Z" fill="#013D5B"/>
<path d="M300.338 29.76V8.07L301.868 7.92L301.988 8.97C303.688 8.01 305.248 7.53 306.668 7.53C308.628 7.53 310.168 8.22 311.288 9.6C312.408 10.96 312.968 12.85 312.968 15.27C312.968 17.93 312.328 19.97 311.048 21.39C309.788 22.81 307.958 23.52 305.558 23.52C304.318 23.52 303.178 23.36 302.138 23.04V29.52L300.338 29.76ZM306.428 8.97C305.768 8.97 305.058 9.08 304.298 9.3C303.538 9.52 302.818 9.82 302.138 10.2V21.6C303.178 21.92 304.268 22.08 305.408 22.08C307.328 22.08 308.748 21.53 309.668 20.43C310.608 19.31 311.078 17.6 311.078 15.3C311.078 13.24 310.678 11.67 309.878 10.59C309.098 9.51 307.948 8.97 306.428 8.97Z" fill="#013D5B"/>
<path d="M289.688 23.52C287.508 23.52 285.858 22.85 284.738 21.51C283.638 20.15 283.088 18.15 283.088 15.51C283.088 12.89 283.638 10.91 284.738 9.57C285.858 8.21 287.508 7.53 289.688 7.53C291.868 7.53 293.508 8.21 294.608 9.57C295.728 10.91 296.288 12.89 296.288 15.51C296.288 18.15 295.728 20.15 294.608 21.51C293.508 22.85 291.868 23.52 289.688 23.52ZM289.688 22.08C291.328 22.08 292.518 21.56 293.258 20.52C294.018 19.46 294.398 17.79 294.398 15.51C294.398 13.25 294.018 11.6 293.258 10.56C292.518 9.5 291.328 8.97 289.688 8.97C288.048 8.97 286.848 9.5 286.088 10.56C285.348 11.6 284.978 13.25 284.978 15.51C284.978 17.79 285.348 19.46 286.088 20.52C286.848 21.56 288.048 22.08 289.688 22.08Z" fill="#013D5B"/>
<path d="M271.905 22.53C270.525 23.19 269.045 23.52 267.465 23.52C265.165 23.52 263.395 22.84 262.155 21.48C260.915 20.12 260.295 18.17 260.295 15.63C260.295 13.11 260.875 11.13 262.035 9.69C263.195 8.25 264.785 7.53 266.805 7.53C268.585 7.53 269.985 8.09 271.005 9.21C272.045 10.31 272.565 11.82 272.565 13.74C272.565 14.46 272.505 15.15 272.385 15.81H262.065C262.085 19.99 263.935 22.08 267.615 22.08C269.095 22.08 270.525 21.76 271.905 21.12V22.53ZM266.775 8.94C265.415 8.94 264.305 9.44 263.445 10.44C262.585 11.44 262.125 12.78 262.065 14.46H270.825C270.865 14.14 270.885 13.86 270.885 13.62C270.885 12.14 270.525 10.99 269.805 10.17C269.085 9.35 268.075 8.94 266.775 8.94Z" fill="#013D5B"/>
<path d="M251.266 23.07V8.07L252.796 7.92L252.946 9.27C254.286 8.17 255.716 7.62 257.236 7.62C257.776 7.62 258.206 7.68 258.526 7.8V9.27C258.006 9.15 257.546 9.09 257.146 9.09C255.726 9.09 254.366 9.6 253.066 10.62V23.07H251.266Z" fill="#013D5B"/>
<path d="M244.92 23.13L244.8 22.08C243.08 23.04 241.38 23.52 239.7 23.52C238.16 23.52 236.94 23.12 236.04 22.32C235.14 21.5 234.69 20.38 234.69 18.96C234.69 17.46 235.19 16.32 236.19 15.54C237.21 14.74 238.7 14.34 240.66 14.34C241.84 14.34 243.18 14.48 244.68 14.76V12.72C244.68 10.22 243.27 8.97 240.45 8.97C239.71 8.97 238.9 9.07 238.02 9.27C237.14 9.47 236.33 9.73 235.59 10.05V8.64C236.31 8.3 237.13 8.03 238.05 7.83C238.99 7.63 239.88 7.53 240.72 7.53C242.6 7.53 244.02 7.98 244.98 8.88C245.96 9.76 246.45 11.04 246.45 12.72V22.98L244.92 23.13ZM240.12 22.08C240.84 22.08 241.6 21.97 242.4 21.75C243.2 21.53 243.96 21.23 244.68 20.85V16.05C243.42 15.81 242.18 15.69 240.96 15.69C239.42 15.69 238.3 15.95 237.6 16.47C236.9 16.99 236.55 17.81 236.55 18.93C236.55 21.03 237.74 22.08 240.12 22.08Z" fill="#013D5B"/>
<path d="M213.797 21.09C215.297 21.75 216.847 22.08 218.447 22.08C221.147 22.08 222.497 21.03 222.497 18.93C222.497 18.25 222.297 17.7 221.897 17.28C221.517 16.86 220.877 16.51 219.977 16.23L217.697 15.51C216.417 15.11 215.487 14.61 214.907 14.01C214.327 13.39 214.037 12.61 214.037 11.67C214.037 10.41 214.527 9.41 215.507 8.67C216.507 7.91 217.847 7.53 219.527 7.53C220.947 7.53 222.297 7.8 223.577 8.34V9.75C222.237 9.23 220.917 8.97 219.617 8.97C218.437 8.97 217.507 9.21 216.827 9.69C216.167 10.15 215.837 10.79 215.837 11.61C215.837 12.19 216.017 12.66 216.377 13.02C216.757 13.36 217.427 13.69 218.387 14.01L220.757 14.79C221.977 15.19 222.867 15.72 223.427 16.38C224.007 17.04 224.297 17.88 224.297 18.9C224.297 20.38 223.797 21.52 222.797 22.32C221.797 23.12 220.387 23.52 218.567 23.52C216.887 23.52 215.377 23.21 214.037 22.59L213.797 21.09Z" fill="#013D5B"/>
<path d="M210.294 22.53C208.914 23.19 207.434 23.52 205.854 23.52C203.554 23.52 201.784 22.84 200.544 21.48C199.304 20.12 198.684 18.17 198.684 15.63C198.684 13.11 199.264 11.13 200.424 9.69C201.584 8.25 203.174 7.53 205.194 7.53C206.974 7.53 208.374 8.09 209.394 9.21C210.434 10.31 210.954 11.82 210.954 13.74C210.954 14.46 210.894 15.15 210.774 15.81H200.454C200.474 19.99 202.324 22.08 206.004 22.08C207.484 22.08 208.914 21.76 210.294 21.12V22.53ZM205.164 8.94C203.804 8.94 202.694 9.44 201.834 10.44C200.974 11.44 200.514 12.78 200.454 14.46H209.214C209.254 14.14 209.274 13.86 209.274 13.62C209.274 12.14 208.914 10.99 208.194 10.17C207.474 9.35 206.464 8.94 205.164 8.94ZM203.484 5.49L206.814 1.38H209.094L205.104 5.49H203.484Z" fill="#013D5B"/>
<path d="M190.778 23.07V9.36H188.498V8.07L190.778 7.98V4.59C190.778 3.11 191.138 1.98 191.858 1.2C192.598 0.4 193.668 0 195.068 0C195.828 0 196.598 0.14 197.378 0.42V1.74C196.658 1.52 195.968 1.41 195.308 1.41C194.368 1.41 193.678 1.66 193.238 2.16C192.798 2.64 192.578 3.4 192.578 4.44V7.98H196.628V9.36H192.578V23.07H190.778Z" fill="#013D5B"/>
<path d="M184.012 23.13L183.892 22.08C182.172 23.04 180.471 23.52 178.791 23.52C177.251 23.52 176.032 23.12 175.132 22.32C174.232 21.5 173.781 20.38 173.781 18.96C173.781 17.46 174.281 16.32 175.281 15.54C176.301 14.74 177.791 14.34 179.751 14.34C180.931 14.34 182.271 14.48 183.771 14.76V12.72C183.771 10.22 182.361 8.97 179.541 8.97C178.801 8.97 177.991 9.07 177.111 9.27C176.231 9.47 175.421 9.73 174.681 10.05V8.64C175.401 8.3 176.221 8.03 177.141 7.83C178.081 7.63 178.971 7.53 179.811 7.53C181.691 7.53 183.112 7.98 184.072 8.88C185.052 9.76 185.542 11.04 185.542 12.72V22.98L184.012 23.13ZM179.212 22.08C179.932 22.08 180.692 21.97 181.492 21.75C182.292 21.53 183.051 21.23 183.771 20.85V16.05C182.511 15.81 181.271 15.69 180.051 15.69C178.511 15.69 177.391 15.95 176.691 16.47C175.991 16.99 175.641 17.81 175.641 18.93C175.641 21.03 176.832 22.08 179.212 22.08Z" fill="#013D5B"/>
<path d="M170.658 22.23C168.938 23.09 167.138 23.52 165.258 23.52C162.598 23.52 160.518 22.56 159.018 20.64C157.518 18.7 156.768 16.01 156.768 12.57C156.768 9.13 157.518 6.45 159.018 4.53C160.518 2.59 162.598 1.62 165.258 1.62C167.078 1.62 168.848 2.05 170.568 2.91V4.44C169.648 4 168.788 3.68 167.988 3.48C167.188 3.28 166.358 3.18 165.498 3.18C163.278 3.18 161.598 3.98 160.458 5.58C159.338 7.16 158.778 9.49 158.778 12.57C158.778 15.65 159.338 17.99 160.458 19.59C161.598 21.17 163.278 21.96 165.498 21.96C167.198 21.96 168.918 21.54 170.658 20.7V22.23Z" fill="#013D5B"/>
<path d="M145.255 22.53C143.875 23.19 142.395 23.52 140.815 23.52C138.515 23.52 136.745 22.84 135.505 21.48C134.265 20.12 133.645 18.17 133.645 15.63C133.645 13.11 134.225 11.13 135.385 9.69C136.545 8.25 138.135 7.53 140.155 7.53C141.935 7.53 143.335 8.09 144.355 9.21C145.395 10.31 145.915 11.82 145.915 13.74C145.915 14.46 145.855 15.15 145.735 15.81H135.415C135.435 19.99 137.285 22.08 140.965 22.08C142.445 22.08 143.875 21.76 145.255 21.12V22.53ZM140.125 8.94C138.765 8.94 137.655 9.44 136.795 10.44C135.935 11.44 135.475 12.78 135.415 14.46H144.175C144.215 14.14 144.235 13.86 144.235 13.62C144.235 12.14 143.875 10.99 143.155 10.17C142.435 9.35 141.425 8.94 140.125 8.94Z" fill="#013D5B"/>
<path d="M128.015 23.07V12.66C128.015 10.2 126.765 8.97 124.265 8.97C123.605 8.97 122.875 9.08 122.075 9.3C121.295 9.52 120.525 9.82 119.765 10.2V23.07H117.965V8.07L119.495 7.92L119.615 8.97C121.355 8.01 123.055 7.53 124.715 7.53C126.335 7.53 127.585 7.95 128.465 8.79C129.365 9.63 129.815 10.82 129.815 12.36V23.07H128.015Z" fill="#013D5B"/>
<path d="M104.996 21.99C109.396 21.99 111.596 18.85 111.596 12.57C111.596 6.29 109.396 3.15 104.996 3.15C100.596 3.15 98.396 6.29 98.396 12.57C98.396 18.85 100.596 21.99 104.996 21.99ZM104.996 23.52C102.236 23.52 100.116 22.57 98.636 20.67C97.156 18.77 96.416 16.07 96.416 12.57C96.416 9.07 97.156 6.37 98.636 4.47C100.116 2.57 102.236 1.62 104.996 1.62C107.756 1.62 109.876 2.57 111.356 4.47C112.836 6.37 113.576 9.07 113.576 12.57C113.576 16.07 112.836 18.77 111.356 20.67C109.876 22.57 107.756 23.52 104.996 23.52Z" fill="#013D5B"/>
<path d="M82.75 23.07V0.539999L84.55 0.299999V23.07H82.75Z" fill="#013D5B"/>
<path d="M76.4041 23.13L76.2841 22.08C74.5641 23.04 72.8641 23.52 71.1841 23.52C69.6441 23.52 68.4241 23.12 67.5241 22.32C66.6241 21.5 66.1741 20.38 66.1741 18.96C66.1741 17.46 66.6741 16.32 67.6741 15.54C68.6941 14.74 70.1841 14.34 72.1441 14.34C73.3241 14.34 74.6641 14.48 76.1641 14.76V12.72C76.1641 10.22 74.7541 8.97 71.9341 8.97C71.1941 8.97 70.3841 9.07 69.5041 9.27C68.6241 9.47 67.8141 9.73 67.0741 10.05V8.64C67.7941 8.3 68.6141 8.03 69.5341 7.83C70.4741 7.63 71.3641 7.53 72.2041 7.53C74.0841 7.53 75.5041 7.98 76.4641 8.88C77.4441 9.76 77.9341 11.04 77.9341 12.72V22.98L76.4041 23.13ZM71.6041 22.08C72.3241 22.08 73.0841 21.97 73.8841 21.75C74.6841 21.53 75.4441 21.23 76.1641 20.85V16.05C74.9041 15.81 73.6641 15.69 72.4441 15.69C70.9041 15.69 69.7841 15.95 69.0841 16.47C68.3841 16.99 68.0341 17.81 68.0341 18.93C68.0341 21.03 69.2241 22.08 71.6041 22.08Z" fill="#013D5B"/>
<path d="M59.3058 9.36V18.96C59.3058 20 59.5258 20.77 59.9658 21.27C60.4058 21.75 61.0858 21.99 62.0058 21.99C62.6058 21.99 63.2858 21.88 64.0458 21.66V22.98C63.2058 23.26 62.4358 23.4 61.7358 23.4C60.3558 23.4 59.3058 23.03 58.5858 22.29C57.8658 21.53 57.5058 20.41 57.5058 18.93V9.36H55.2258V8.07L57.5658 7.98L57.7458 4.2L59.3058 4.02V7.98H63.8358V9.36H59.3058Z" fill="#013D5B"/>
<path d="M50.2598 23.07V8.13L52.0598 7.89V23.07H50.2598ZM51.1598 4.32C50.7598 4.32 50.4298 4.2 50.1698 3.96C49.9298 3.72 49.8098 3.39 49.8098 2.97C49.8098 2.55 49.9298 2.22 50.1698 1.98C50.4298 1.74 50.7598 1.62 51.1598 1.62C51.5598 1.62 51.8798 1.74 52.1198 1.98C52.3798 2.22 52.5098 2.55 52.5098 2.97C52.5098 3.39 52.3798 3.72 52.1198 3.96C51.8798 4.2 51.5598 4.32 51.1598 4.32Z" fill="#013D5B"/>
<path d="M33.5898 29.76V8.07L35.1199 7.92L35.2398 8.97C36.9398 8.01 38.4998 7.53 39.9198 7.53C41.8798 7.53 43.4198 8.22 44.5398 9.6C45.6598 10.96 46.2198 12.85 46.2198 15.27C46.2198 17.93 45.5799 19.97 44.2999 21.39C43.0399 22.81 41.2098 23.52 38.8098 23.52C37.5698 23.52 36.4298 23.36 35.3898 23.04V29.52L33.5898 29.76ZM39.6798 8.97C39.0198 8.97 38.3099 9.08 37.5499 9.3C36.7899 9.52 36.0698 9.82 35.3898 10.2V21.6C36.4298 21.92 37.5199 22.08 38.6599 22.08C40.5799 22.08 41.9998 21.53 42.9198 20.43C43.8598 19.31 44.3298 17.6 44.3298 15.3C44.3298 13.24 43.9298 11.67 43.1298 10.59C42.3498 9.51 41.1998 8.97 39.6798 8.97Z" fill="#013D5B"/>
<path d="M27.2439 23.13L27.1239 22.08C25.4039 23.04 23.7039 23.52 22.0239 23.52C20.4839 23.52 19.2639 23.12 18.3639 22.32C17.4639 21.5 17.0139 20.38 17.0139 18.96C17.0139 17.46 17.5139 16.32 18.5139 15.54C19.5339 14.74 21.0239 14.34 22.9839 14.34C24.1639 14.34 25.5039 14.48 27.0039 14.76V12.72C27.0039 10.22 25.5939 8.97 22.7739 8.97C22.0339 8.97 21.2239 9.07 20.3439 9.27C19.4639 9.47 18.6539 9.73 17.9139 10.05V8.64C18.6339 8.3 19.4539 8.03 20.3739 7.83C21.3139 7.63 22.2039 7.53 23.0439 7.53C24.9239 7.53 26.3439 7.98 27.3039 8.88C28.2839 9.76 28.7739 11.04 28.7739 12.72V22.98L27.2439 23.13ZM22.4439 22.08C23.1639 22.08 23.9239 21.97 24.7239 21.75C25.5239 21.53 26.2839 21.23 27.0039 20.85V16.05C25.7439 15.81 24.5039 15.69 23.2839 15.69C21.7439 15.69 20.6239 15.95 19.9239 16.47C19.2239 16.99 18.8739 17.81 18.8739 18.93C18.8739 21.03 20.0639 22.08 22.4439 22.08Z" fill="#013D5B"/>
<path d="M13.89 22.23C12.17 23.09 10.37 23.52 8.49 23.52C5.83 23.52 3.75 22.56 2.25 20.64C0.75 18.7 0 16.01 0 12.57C0 9.13 0.75 6.45 2.25 4.53C3.75 2.59 5.83 1.62 8.49 1.62C10.31 1.62 12.08 2.05 13.8 2.91V4.44C12.88 4 12.02 3.68 11.22 3.48C10.42 3.28 9.59 3.18 8.73 3.18C6.51 3.18 4.83 3.98 3.69 5.58C2.57 7.16 2.01 9.49 2.01 12.57C2.01 15.65 2.57 17.99 3.69 19.59C4.83 21.17 6.51 21.96 8.73 21.96C10.43 21.96 12.15 21.54 13.89 20.7V22.23Z" fill="#013D5B"/>
</svg>
