<svg width="207" height="29" viewBox="0 0 207 29" fill="none" xmlns="http://www.w3.org/2000/svg">
<path d="M196.227 19.684C197.627 20.3 199.074 20.608 200.567 20.608C203.087 20.608 204.347 19.628 204.347 17.668C204.347 17.0333 204.16 16.52 203.787 16.128C203.432 15.736 202.835 15.4093 201.995 15.148L199.867 14.476C198.672 14.1027 197.804 13.636 197.263 13.076C196.722 12.4973 196.451 11.7693 196.451 10.892C196.451 9.71599 196.908 8.78265 197.823 8.09198C198.756 7.38265 200.007 7.02798 201.575 7.02798C202.9 7.02798 204.16 7.27999 205.355 7.78399V9.09999C204.104 8.61465 202.872 8.37199 201.659 8.37199C200.558 8.37199 199.69 8.59599 199.055 9.04399C198.439 9.47332 198.131 10.0707 198.131 10.836C198.131 11.3773 198.299 11.816 198.635 12.152C198.99 12.4693 199.615 12.7773 200.511 13.076L202.723 13.804C203.862 14.1773 204.692 14.672 205.215 15.288C205.756 15.904 206.027 16.688 206.027 17.64C206.027 19.0213 205.56 20.0853 204.627 20.832C203.694 21.5787 202.378 21.952 200.679 21.952C199.111 21.952 197.702 21.6627 196.451 21.084L196.227 19.684Z" fill="#013D5B"/>
<path d="M192.958 21.028C191.67 21.644 190.288 21.952 188.814 21.952C186.667 21.952 185.015 21.3173 183.858 20.048C182.7 18.7786 182.122 16.9586 182.122 14.588C182.122 12.236 182.663 10.388 183.746 9.04397C184.828 7.69997 186.312 7.02797 188.198 7.02797C189.859 7.02797 191.166 7.55063 192.118 8.59597C193.088 9.62263 193.574 11.032 193.574 12.824C193.574 13.496 193.518 14.14 193.406 14.756H183.774C183.792 18.6573 185.519 20.608 188.954 20.608C190.335 20.608 191.67 20.3093 192.958 19.712V21.028ZM188.17 8.34397C186.9 8.34397 185.864 8.81063 185.062 9.74397C184.259 10.6773 183.83 11.928 183.774 13.496H191.95C191.987 13.1973 192.006 12.936 192.006 12.712C192.006 11.3306 191.67 10.2573 190.998 9.49197C190.326 8.72663 189.383 8.34397 188.17 8.34397ZM186.602 5.12397L189.71 1.28796H191.838L188.114 5.12397H186.602Z" fill="#013D5B"/>
<path d="M174.742 21.532V8.736H172.614V7.532L174.742 7.448V4.284C174.742 2.90267 175.078 1.848 175.75 1.12C176.441 0.373332 177.44 0 178.746 0C179.456 0 180.174 0.130665 180.902 0.391998V1.624C180.23 1.41867 179.586 1.316 178.97 1.316C178.093 1.316 177.449 1.54934 177.038 2.016C176.628 2.464 176.422 3.17333 176.422 4.144V7.448H180.202V8.736H176.422V21.532H174.742Z" fill="#013D5B"/>
<path d="M168.427 21.588L168.315 20.608C166.71 21.504 165.123 21.952 163.555 21.952C162.118 21.952 160.979 21.5787 160.139 20.832C159.299 20.0667 158.879 19.0213 158.879 17.696C158.879 16.296 159.346 15.232 160.279 14.504C161.231 13.7573 162.622 13.384 164.451 13.384C165.553 13.384 166.803 13.5147 168.203 13.776V11.872C168.203 9.53865 166.887 8.37199 164.255 8.37199C163.565 8.37199 162.809 8.46532 161.987 8.65199C161.166 8.83865 160.41 9.08132 159.719 9.37999V8.06398C160.391 7.74665 161.157 7.49465 162.015 7.30799C162.893 7.12132 163.723 7.02798 164.507 7.02798C166.262 7.02798 167.587 7.44799 168.483 8.28799C169.398 9.10932 169.855 10.304 169.855 11.872V21.448L168.427 21.588ZM163.947 20.608C164.619 20.608 165.329 20.5053 166.075 20.3C166.822 20.0947 167.531 19.8147 168.203 19.46V14.98C167.027 14.756 165.87 14.644 164.731 14.644C163.294 14.644 162.249 14.8867 161.595 15.372C160.942 15.8573 160.615 16.6227 160.615 17.668C160.615 19.628 161.726 20.608 163.947 20.608Z" fill="#013D5B"/>
<path d="M155.964 20.748C154.359 21.5506 152.679 21.952 150.924 21.952C148.441 21.952 146.5 21.056 145.1 19.264C143.7 17.4533 143 14.9426 143 11.732C143 8.5213 143.7 6.01996 145.1 4.22796C146.5 2.4173 148.441 1.51196 150.924 1.51196C152.623 1.51196 154.275 1.9133 155.88 2.71596V4.14396C155.021 3.7333 154.219 3.43463 153.472 3.24796C152.725 3.0613 151.951 2.96796 151.148 2.96796C149.076 2.96796 147.508 3.71463 146.444 5.20796C145.399 6.68263 144.876 8.8573 144.876 11.732C144.876 14.6066 145.399 16.7906 146.444 18.284C147.508 19.7586 149.076 20.496 151.148 20.496C152.735 20.496 154.34 20.104 155.964 19.32V20.748Z" fill="#013D5B"/>
<path d="M135.571 21.748C134.283 22.364 132.902 22.672 131.427 22.672C129.28 22.672 127.628 22.0373 126.471 20.768C125.314 19.4987 124.735 17.6787 124.735 15.308C124.735 12.956 125.276 11.108 126.359 9.76402C127.442 8.42002 128.926 7.74802 130.811 7.74802C132.472 7.74802 133.779 8.27068 134.731 9.31602C135.702 10.3427 136.187 11.752 136.187 13.544C136.187 14.216 136.131 14.86 136.019 15.476H126.387C126.406 19.3773 128.132 21.328 131.567 21.328C132.948 21.328 134.283 21.0294 135.571 20.432V21.748ZM130.783 9.06402C129.514 9.06402 128.478 9.53068 127.675 10.464C126.872 11.3973 126.443 12.648 126.387 14.216H134.563C134.6 13.9173 134.619 13.656 134.619 13.432C134.619 12.0507 134.283 10.9773 133.611 10.212C132.939 9.44668 131.996 9.06402 130.783 9.06402Z" fill="#013D5B"/>
<path d="M119.48 22.252V12.536C119.48 10.24 118.314 9.09202 115.98 9.09202C115.364 9.09202 114.683 9.19468 113.936 9.40001C113.208 9.60535 112.49 9.88535 111.78 10.24V22.252H110.1V8.25202L111.528 8.11202L111.64 9.09202C113.264 8.19602 114.851 7.74802 116.4 7.74802C117.912 7.74802 119.079 8.14002 119.9 8.92402C120.74 9.70802 121.16 10.8187 121.16 12.256V22.252H119.48Z" fill="#013D5B"/>
<path d="M97.9963 21.244C102.103 21.244 104.156 18.3133 104.156 12.452C104.156 6.59066 102.103 3.65999 97.9963 3.65999C93.8896 3.65999 91.8363 6.59066 91.8363 12.452C91.8363 18.3133 93.8896 21.244 97.9963 21.244ZM97.9963 22.672C95.4203 22.672 93.4416 21.7853 92.0603 20.012C90.6789 18.2387 89.9883 15.7187 89.9883 12.452C89.9883 9.18533 90.6789 6.66533 92.0603 4.89199C93.4416 3.11866 95.4203 2.23199 97.9963 2.23199C100.572 2.23199 102.551 3.11866 103.932 4.89199C105.314 6.66533 106.004 9.18533 106.004 12.452C106.004 15.7187 105.314 18.2387 103.932 20.012C102.551 21.7853 100.572 22.672 97.9963 22.672Z" fill="#013D5B"/>
<path d="M77.2332 22.252V1.224L78.9131 1V22.252H77.2332Z" fill="#013D5B"/>
<path d="M71.3102 22.308L71.1982 21.328C69.5929 22.224 68.0062 22.672 66.4382 22.672C65.0009 22.672 63.8622 22.2987 63.0222 21.552C62.1822 20.7867 61.7622 19.7413 61.7622 18.416C61.7622 17.016 62.2289 15.952 63.1622 15.224C64.1142 14.4773 65.5049 14.104 67.3342 14.104C68.4355 14.104 69.6862 14.2347 71.0862 14.496V12.592C71.0862 10.2587 69.7702 9.09202 67.1382 9.09202C66.4475 9.09202 65.6915 9.18535 64.8702 9.37201C64.0489 9.55868 63.2929 9.80135 62.6022 10.1V8.78401C63.2742 8.46668 64.0395 8.21468 64.8982 8.02802C65.7755 7.84135 66.6062 7.74802 67.3902 7.74802C69.1449 7.74802 70.4702 8.16802 71.3662 9.00802C72.2809 9.82935 72.7382 11.024 72.7382 12.592V22.168L71.3102 22.308ZM66.8302 21.328C67.5022 21.328 68.2116 21.2253 68.9582 21.02C69.7049 20.8147 70.4142 20.5347 71.0862 20.18V15.7C69.9102 15.476 68.7529 15.364 67.6142 15.364C66.1769 15.364 65.1315 15.6067 64.4782 16.092C63.8249 16.5773 63.4982 17.3427 63.4982 18.388C63.4982 20.348 64.6089 21.328 66.8302 21.328Z" fill="#013D5B"/>
<path d="M55.352 9.45602V18.416C55.352 19.3867 55.5573 20.1054 55.9679 20.572C56.3786 21.02 57.0133 21.244 57.8719 21.244C58.4319 21.244 59.0666 21.1413 59.776 20.936V22.168C58.992 22.4294 58.2733 22.56 57.6199 22.56C56.3319 22.56 55.3519 22.2147 54.6799 21.524C54.0079 20.8147 53.672 19.7694 53.672 18.388V9.45602H51.5439V8.25202L53.728 8.16802L53.896 4.64002L55.352 4.47202V8.16802H59.58V9.45602H55.352Z" fill="#013D5B"/>
<path d="M46.9088 22.252V8.30799L48.5888 8.08399V22.252H46.9088ZM47.7488 4.752C47.3754 4.752 47.0674 4.64 46.8248 4.41599C46.6008 4.19199 46.4888 3.88399 46.4888 3.49199C46.4888 3.09999 46.6008 2.79199 46.8248 2.568C47.0674 2.34399 47.3754 2.23199 47.7488 2.23199C48.1221 2.23199 48.4208 2.34399 48.6448 2.568C48.8874 2.79199 49.0088 3.09999 49.0088 3.49199C49.0088 3.88399 48.8874 4.19199 48.6448 4.41599C48.4208 4.64 48.1221 4.752 47.7488 4.752Z" fill="#013D5B"/>
<path d="M31.3503 28.496V8.25202L32.7783 8.11202L32.8903 9.09202C34.477 8.19602 35.933 7.74802 37.2583 7.74802C39.0877 7.74802 40.525 8.39202 41.5703 9.68002C42.6157 10.9493 43.1383 12.7133 43.1383 14.972C43.1383 17.4547 42.541 19.3587 41.3463 20.684C40.1703 22.0093 38.4623 22.672 36.2223 22.672C35.065 22.672 34.001 22.5227 33.0303 22.224V28.272L31.3503 28.496ZM37.0343 9.09202C36.4183 9.09202 35.7557 9.19468 35.0463 9.40001C34.337 9.60535 33.665 9.88535 33.0303 10.24V20.88C34.001 21.1787 35.0183 21.328 36.0823 21.328C37.8743 21.328 39.1997 20.8147 40.0583 19.788C40.9357 18.7427 41.3743 17.1467 41.3743 15C41.3743 13.0773 41.001 11.612 40.2543 10.604C39.5263 9.59601 38.453 9.09202 37.0343 9.09202Z" fill="#013D5B"/>
<path d="M25.4274 22.308L25.3154 21.328C23.7101 22.224 22.1234 22.672 20.5554 22.672C19.1181 22.672 17.9794 22.2987 17.1394 21.552C16.2994 20.7867 15.8794 19.7413 15.8794 18.416C15.8794 17.016 16.3461 15.952 17.2794 15.224C18.2314 14.4773 19.6221 14.104 21.4514 14.104C22.5527 14.104 23.8034 14.2347 25.2034 14.496V12.592C25.2034 10.2587 23.8874 9.09202 21.2554 9.09202C20.5647 9.09202 19.8087 9.18535 18.9874 9.37201C18.1661 9.55868 17.4101 9.80135 16.7194 10.1V8.78401C17.3914 8.46668 18.1567 8.21468 19.0154 8.02802C19.8927 7.84135 20.7234 7.74802 21.5074 7.74802C23.2621 7.74802 24.5874 8.16802 25.4834 9.00802C26.3981 9.82935 26.8554 11.024 26.8554 12.592V22.168L25.4274 22.308ZM20.9474 21.328C21.6194 21.328 22.3287 21.2253 23.0754 21.02C23.8221 20.8147 24.5314 20.5347 25.2034 20.18V15.7C24.0274 15.476 22.8701 15.364 21.7314 15.364C20.2941 15.364 19.2487 15.6067 18.5954 16.092C17.9421 16.5773 17.6154 17.3427 17.6154 18.388C17.6154 20.348 18.7261 21.328 20.9474 21.328Z" fill="#013D5B"/>
<path d="M12.964 21.468C11.3587 22.2707 9.67867 22.672 7.924 22.672C5.44134 22.672 3.5 21.776 2.1 19.984C0.699998 18.1733 0 15.6627 0 12.452C0 9.24133 0.699998 6.73999 2.1 4.94799C3.5 3.13733 5.44134 2.23199 7.924 2.23199C9.62267 2.23199 11.2747 2.63333 12.88 3.43599V4.86399C12.0213 4.45333 11.2187 4.15466 10.472 3.96799C9.72533 3.78133 8.95067 3.68799 8.148 3.68799C6.076 3.68799 4.508 4.43466 3.444 5.92799C2.39867 7.40266 1.876 9.57733 1.876 12.452C1.876 15.3267 2.39867 17.5107 3.444 19.004C4.508 20.4787 6.076 21.216 8.148 21.216C9.73467 21.216 11.34 20.824 12.964 20.04V21.468Z" fill="#013D5B"/>
</svg>
