<svg width="191" height="21" viewBox="0 0 191 21" fill="none" xmlns="http://www.w3.org/2000/svg">
<path d="M190.333 15.771C189.367 16.233 188.331 16.464 187.225 16.464C185.615 16.464 184.376 15.988 183.508 15.036C182.64 14.084 182.206 12.719 182.206 10.941C182.206 9.177 182.612 7.791 183.424 6.783C184.236 5.775 185.349 5.271 186.763 5.271C188.009 5.271 188.989 5.663 189.703 6.447C190.431 7.217 190.795 8.274 190.795 9.618C190.795 10.122 190.753 10.605 190.669 11.067H183.445C183.459 13.993 184.754 15.456 187.33 15.456C188.366 15.456 189.367 15.232 190.333 14.784V15.771ZM186.742 6.258C185.79 6.258 185.013 6.608 184.411 7.308C183.809 8.008 183.487 8.946 183.445 10.122H189.577C189.605 9.898 189.619 9.702 189.619 9.534C189.619 8.498 189.367 7.693 188.863 7.119C188.359 6.545 187.652 6.258 186.742 6.258Z" fill="#013D5B"/>
<path d="M175.886 16.149V5.649L176.957 5.544L177.062 6.489C178 5.719 179.001 5.334 180.065 5.334C180.443 5.334 180.744 5.376 180.968 5.46V6.489C180.604 6.405 180.282 6.363 180.002 6.363C179.008 6.363 178.056 6.72 177.146 7.434V16.149H175.886Z" fill="#013D5B"/>
<path d="M171.444 16.191L171.36 15.456C170.156 16.128 168.966 16.464 167.79 16.464C166.712 16.464 165.858 16.184 165.228 15.624C164.598 15.05 164.283 14.266 164.283 13.272C164.283 12.222 164.633 11.424 165.333 10.878C166.047 10.318 167.09 10.038 168.462 10.038C169.288 10.038 170.226 10.136 171.276 10.332V8.904C171.276 7.154 170.289 6.279 168.315 6.279C167.797 6.279 167.23 6.349 166.614 6.489C165.998 6.629 165.431 6.811 164.913 7.035V6.048C165.417 5.81 165.991 5.621 166.635 5.481C167.293 5.341 167.916 5.271 168.504 5.271C169.82 5.271 170.814 5.586 171.486 6.216C172.172 6.832 172.515 7.728 172.515 8.904V16.086L171.444 16.191ZM168.084 15.456C168.588 15.456 169.12 15.379 169.68 15.225C170.24 15.071 170.772 14.861 171.276 14.595V11.235C170.394 11.067 169.526 10.983 168.672 10.983C167.594 10.983 166.81 11.165 166.32 11.529C165.83 11.893 165.585 12.467 165.585 13.251C165.585 14.721 166.418 15.456 168.084 15.456Z" fill="#013D5B"/>
<path d="M149.658 14.763C150.708 15.225 151.793 15.456 152.913 15.456C154.803 15.456 155.748 14.721 155.748 13.251C155.748 12.775 155.608 12.39 155.328 12.096C155.062 11.802 154.614 11.557 153.984 11.361L152.388 10.857C151.492 10.577 150.841 10.227 150.435 9.807C150.029 9.373 149.826 8.827 149.826 8.169C149.826 7.287 150.169 6.587 150.855 6.069C151.555 5.537 152.493 5.271 153.669 5.271C154.663 5.271 155.608 5.46 156.504 5.838V6.825C155.566 6.461 154.642 6.279 153.732 6.279C152.906 6.279 152.255 6.447 151.779 6.783C151.317 7.105 151.086 7.553 151.086 8.127C151.086 8.533 151.212 8.862 151.464 9.114C151.73 9.352 152.199 9.583 152.871 9.807L154.53 10.353C155.384 10.633 156.007 11.004 156.399 11.466C156.805 11.928 157.008 12.516 157.008 13.23C157.008 14.266 156.658 15.064 155.958 15.624C155.258 16.184 154.271 16.464 152.997 16.464C151.821 16.464 150.764 16.247 149.826 15.813L149.658 14.763Z" fill="#013D5B"/>
<path d="M147.206 15.771C146.24 16.233 145.204 16.464 144.098 16.464C142.488 16.464 141.249 15.988 140.381 15.036C139.513 14.084 139.079 12.719 139.079 10.941C139.079 9.177 139.485 7.791 140.297 6.783C141.109 5.775 142.222 5.271 143.636 5.271C144.882 5.271 145.862 5.663 146.576 6.447C147.304 7.217 147.668 8.274 147.668 9.618C147.668 10.122 147.626 10.605 147.542 11.067H140.318C140.332 13.993 141.627 15.456 144.203 15.456C145.239 15.456 146.24 15.232 147.206 14.784V15.771ZM143.615 6.258C142.663 6.258 141.886 6.608 141.284 7.308C140.682 8.008 140.36 8.946 140.318 10.122H146.45C146.478 9.898 146.492 9.702 146.492 9.534C146.492 8.498 146.24 7.693 145.736 7.119C145.232 6.545 144.525 6.258 143.615 6.258ZM142.439 3.843L144.77 0.966002H146.366L143.573 3.843H142.439Z" fill="#013D5B"/>
<path d="M133.544 16.149V6.552H131.948V5.649L133.544 5.586V3.213C133.544 2.177 133.796 1.386 134.3 0.840001C134.818 0.28 135.567 0 136.547 0C137.079 0 137.618 0.0980002 138.164 0.294V1.218C137.66 1.064 137.177 0.987 136.715 0.987C136.057 0.987 135.574 1.162 135.266 1.512C134.958 1.848 134.804 2.38 134.804 3.108V5.586H137.639V6.552H134.804V16.149H133.544Z" fill="#013D5B"/>
<path d="M128.808 16.191L128.724 15.456C127.52 16.128 126.33 16.464 125.154 16.464C124.076 16.464 123.222 16.184 122.592 15.624C121.962 15.05 121.647 14.266 121.647 13.272C121.647 12.222 121.997 11.424 122.697 10.878C123.411 10.318 124.454 10.038 125.826 10.038C126.652 10.038 127.59 10.136 128.64 10.332V8.904C128.64 7.154 127.653 6.279 125.679 6.279C125.161 6.279 124.594 6.349 123.978 6.489C123.362 6.629 122.795 6.811 122.277 7.035V6.048C122.781 5.81 123.355 5.621 123.999 5.481C124.657 5.341 125.28 5.271 125.868 5.271C127.184 5.271 128.178 5.586 128.85 6.216C129.536 6.832 129.879 7.728 129.879 8.904V16.086L128.808 16.191ZM125.448 15.456C125.952 15.456 126.484 15.379 127.044 15.225C127.604 15.071 128.136 14.861 128.64 14.595V11.235C127.758 11.067 126.89 10.983 126.036 10.983C124.958 10.983 124.174 11.165 123.684 11.529C123.194 11.893 122.949 12.467 122.949 13.251C122.949 14.721 123.782 15.456 125.448 15.456Z" fill="#013D5B"/>
<path d="M119.46 15.561C118.256 16.163 116.996 16.464 115.68 16.464C113.818 16.464 112.362 15.792 111.312 14.448C110.262 13.09 109.737 11.207 109.737 8.799C109.737 6.391 110.262 4.515 111.312 3.171C112.362 1.813 113.818 1.134 115.68 1.134C116.954 1.134 118.193 1.435 119.397 2.037V3.108C118.753 2.8 118.151 2.576 117.591 2.436C117.031 2.296 116.45 2.226 115.848 2.226C114.294 2.226 113.118 2.786 112.32 3.906C111.536 5.012 111.144 6.643 111.144 8.799C111.144 10.955 111.536 12.593 112.32 13.713C113.118 14.819 114.294 15.372 115.848 15.372C117.038 15.372 118.242 15.078 119.46 14.49V15.561Z" fill="#013D5B"/>
<path d="M101.678 15.771C100.712 16.233 99.6762 16.464 98.5702 16.464C96.9602 16.464 95.7212 15.988 94.8532 15.036C93.9852 14.084 93.5512 12.719 93.5512 10.941C93.5512 9.177 93.9572 7.791 94.7692 6.783C95.5812 5.775 96.6942 5.271 98.1082 5.271C99.3542 5.271 100.334 5.663 101.048 6.447C101.776 7.217 102.14 8.274 102.14 9.618C102.14 10.122 102.098 10.605 102.014 11.067H94.7902C94.8042 13.993 96.0992 15.456 98.6752 15.456C99.7112 15.456 100.712 15.232 101.678 14.784V15.771ZM98.0872 6.258C97.1352 6.258 96.3582 6.608 95.7562 7.308C95.1542 8.008 94.8322 8.946 94.7902 10.122H100.922C100.95 9.898 100.964 9.702 100.964 9.534C100.964 8.498 100.712 7.693 100.208 7.119C99.7042 6.545 98.9972 6.258 98.0872 6.258Z" fill="#013D5B"/>
<path d="M89.6103 16.149V8.862C89.6103 7.14 88.7353 6.279 86.9853 6.279C86.5233 6.279 86.0123 6.356 85.4523 6.51C84.9063 6.664 84.3673 6.874 83.8353 7.14V16.149H82.5753V5.649L83.6463 5.544L83.7303 6.279C84.9483 5.607 86.1383 5.271 87.3003 5.271C88.4343 5.271 89.3093 5.565 89.9253 6.153C90.5553 6.741 90.8703 7.574 90.8703 8.652V16.149H89.6103Z" fill="#013D5B"/>
<path d="M73.4972 15.393C76.5772 15.393 78.1172 13.195 78.1172 8.799C78.1172 4.403 76.5772 2.205 73.4972 2.205C70.4172 2.205 68.8772 4.403 68.8772 8.799C68.8772 13.195 70.4172 15.393 73.4972 15.393ZM73.4972 16.464C71.5652 16.464 70.0812 15.799 69.0452 14.469C68.0092 13.139 67.4912 11.249 67.4912 8.799C67.4912 6.349 68.0092 4.459 69.0452 3.129C70.0812 1.799 71.5652 1.134 73.4972 1.134C75.4292 1.134 76.9132 1.799 77.9492 3.129C78.9852 4.459 79.5032 6.349 79.5032 8.799C79.5032 11.249 78.9852 13.139 77.9492 14.469C76.9132 15.799 75.4292 16.464 73.4972 16.464Z" fill="#013D5B"/>
<path d="M57.9249 16.149V0.378001L59.1849 0.210001V16.149H57.9249Z" fill="#013D5B"/>
<path d="M53.4827 16.191L53.3987 15.456C52.1947 16.128 51.0047 16.464 49.8287 16.464C48.7507 16.464 47.8967 16.184 47.2667 15.624C46.6367 15.05 46.3217 14.266 46.3217 13.272C46.3217 12.222 46.6717 11.424 47.3717 10.878C48.0857 10.318 49.1287 10.038 50.5007 10.038C51.3267 10.038 52.2647 10.136 53.3147 10.332V8.904C53.3147 7.154 52.3277 6.279 50.3537 6.279C49.8357 6.279 49.2687 6.349 48.6527 6.489C48.0367 6.629 47.4697 6.811 46.9517 7.035V6.048C47.4557 5.81 48.0297 5.621 48.6737 5.481C49.3317 5.341 49.9547 5.271 50.5427 5.271C51.8587 5.271 52.8527 5.586 53.5247 6.216C54.2107 6.832 54.5537 7.728 54.5537 8.904V16.086L53.4827 16.191ZM50.1227 15.456C50.6267 15.456 51.1587 15.379 51.7187 15.225C52.2787 15.071 52.8107 14.861 53.3147 14.595V11.235C52.4327 11.067 51.5647 10.983 50.7107 10.983C49.6327 10.983 48.8487 11.165 48.3587 11.529C47.8687 11.893 47.6237 12.467 47.6237 13.251C47.6237 14.721 48.4567 15.456 50.1227 15.456Z" fill="#013D5B"/>
<path d="M41.5141 6.552V13.272C41.5141 14 41.6681 14.539 41.9761 14.889C42.2841 15.225 42.7601 15.393 43.4041 15.393C43.8241 15.393 44.3001 15.316 44.8321 15.162V16.086C44.2441 16.282 43.7051 16.38 43.2151 16.38C42.2491 16.38 41.5141 16.121 41.0101 15.603C40.5061 15.071 40.2541 14.287 40.2541 13.251V6.552H38.6581V5.649L40.2961 5.586L40.4221 2.94L41.5141 2.814V5.586H44.6851V6.552H41.5141Z" fill="#013D5B"/>
<path d="M35.1818 16.149V5.691L36.4418 5.523V16.149H35.1818ZM35.8118 3.024C35.5318 3.024 35.3008 2.94 35.1188 2.772C34.9508 2.604 34.8668 2.373 34.8668 2.079C34.8668 1.785 34.9508 1.554 35.1188 1.386C35.3008 1.218 35.5318 1.134 35.8118 1.134C36.0918 1.134 36.3158 1.218 36.4838 1.386C36.6658 1.554 36.7568 1.785 36.7568 2.079C36.7568 2.373 36.6658 2.604 36.4838 2.772C36.3158 2.94 36.0918 3.024 35.8118 3.024Z" fill="#013D5B"/>
<path d="M23.5128 20.832V5.649L24.5838 5.544L24.6678 6.279C25.8578 5.607 26.9498 5.271 27.9438 5.271C29.3158 5.271 30.3938 5.754 31.1778 6.72C31.9618 7.672 32.3538 8.995 32.3538 10.689C32.3538 12.551 31.9058 13.979 31.0098 14.973C30.1278 15.967 28.8468 16.464 27.1668 16.464C26.2988 16.464 25.5008 16.352 24.7728 16.128V20.664L23.5128 20.832ZM27.7758 6.279C27.3138 6.279 26.8168 6.356 26.2848 6.51C25.7528 6.664 25.2488 6.874 24.7728 7.14V15.12C25.5008 15.344 26.2638 15.456 27.0618 15.456C28.4058 15.456 29.3998 15.071 30.0438 14.301C30.7018 13.517 31.0308 12.32 31.0308 10.71C31.0308 9.268 30.7508 8.169 30.1908 7.413C29.6448 6.657 28.8398 6.279 27.7758 6.279Z" fill="#013D5B"/>
<path d="M19.0706 16.191L18.9866 15.456C17.7826 16.128 16.5926 16.464 15.4166 16.464C14.3386 16.464 13.4846 16.184 12.8546 15.624C12.2246 15.05 11.9096 14.266 11.9096 13.272C11.9096 12.222 12.2596 11.424 12.9596 10.878C13.6736 10.318 14.7166 10.038 16.0886 10.038C16.9146 10.038 17.8526 10.136 18.9026 10.332V8.904C18.9026 7.154 17.9156 6.279 15.9416 6.279C15.4236 6.279 14.8566 6.349 14.2406 6.489C13.6246 6.629 13.0576 6.811 12.5396 7.035V6.048C13.0436 5.81 13.6176 5.621 14.2616 5.481C14.9196 5.341 15.5426 5.271 16.1306 5.271C17.4466 5.271 18.4406 5.586 19.1126 6.216C19.7986 6.832 20.1416 7.728 20.1416 8.904V16.086L19.0706 16.191ZM15.7106 15.456C16.2146 15.456 16.7466 15.379 17.3066 15.225C17.8666 15.071 18.3986 14.861 18.9026 14.595V11.235C18.0206 11.067 17.1526 10.983 16.2986 10.983C15.2206 10.983 14.4366 11.165 13.9466 11.529C13.4566 11.893 13.2116 12.467 13.2116 13.251C13.2116 14.721 14.0446 15.456 15.7106 15.456Z" fill="#013D5B"/>
<path d="M9.723 15.561C8.519 16.163 7.259 16.464 5.943 16.464C4.081 16.464 2.625 15.792 1.575 14.448C0.524997 13.09 0 11.207 0 8.799C0 6.391 0.524997 4.515 1.575 3.171C2.625 1.813 4.081 1.134 5.943 1.134C7.217 1.134 8.456 1.435 9.66 2.037V3.108C9.016 2.8 8.414 2.576 7.854 2.436C7.294 2.296 6.713 2.226 6.111 2.226C4.557 2.226 3.381 2.786 2.583 3.906C1.799 5.012 1.407 6.643 1.407 8.799C1.407 10.955 1.799 12.593 2.583 13.713C3.381 14.819 4.557 15.372 6.111 15.372C7.301 15.372 8.505 15.078 9.723 14.49V15.561Z" fill="#013D5B"/>
</svg>
