<svg width="215" height="21" viewBox="0 0 215 21" fill="none" xmlns="http://www.w3.org/2000/svg">
<path d="M207.13 15.939V0.168003L208.39 0V10.059L213.346 5.376H214.837L209.65 10.29L215.005 15.939H213.409L208.39 10.605V15.939H207.13Z" fill="#013D5B"/>
<path d="M203.858 15.561C202.892 16.023 201.856 16.254 200.75 16.254C199.14 16.254 197.901 15.778 197.033 14.826C196.165 13.874 195.731 12.509 195.731 10.731C195.731 8.967 196.137 7.581 196.949 6.573C197.761 5.565 198.874 5.061 200.288 5.061C201.534 5.061 202.514 5.453 203.228 6.237C203.956 7.007 204.32 8.064 204.32 9.408C204.32 9.912 204.278 10.395 204.194 10.857H196.97C196.984 13.783 198.279 15.246 200.855 15.246C201.891 15.246 202.892 15.022 203.858 14.574V15.561ZM200.267 6.048C199.315 6.048 198.538 6.398 197.936 7.098C197.334 7.798 197.012 8.736 196.97 9.912H203.102C203.13 9.688 203.144 9.492 203.144 9.324C203.144 8.288 202.892 7.483 202.388 6.909C201.884 6.335 201.177 6.048 200.267 6.048Z" fill="#013D5B"/>
<path d="M193.153 15.561C192.187 16.023 191.151 16.254 190.045 16.254C188.435 16.254 187.196 15.778 186.328 14.826C185.46 13.874 185.026 12.509 185.026 10.731C185.026 8.967 185.432 7.581 186.244 6.573C187.056 5.565 188.169 5.061 189.583 5.061C190.829 5.061 191.809 5.453 192.523 6.237C193.251 7.007 193.615 8.064 193.615 9.408C193.615 9.912 193.573 10.395 193.489 10.857H186.265C186.279 13.783 187.574 15.246 190.15 15.246C191.186 15.246 192.187 15.022 193.153 14.574V15.561ZM189.562 6.048C188.61 6.048 187.833 6.398 187.231 7.098C186.629 7.798 186.307 8.736 186.265 9.912H192.397C192.425 9.688 192.439 9.492 192.439 9.324C192.439 8.288 192.187 7.483 191.683 6.909C191.179 6.335 190.472 6.048 189.562 6.048Z" fill="#013D5B"/>
<path d="M179.277 15.939L176.442 6.783L173.691 15.939H172.494L169.134 5.376H170.415L173.103 14.385L175.749 5.376H177.156L179.844 14.448L182.511 5.376H183.729L180.474 15.939H179.277Z" fill="#013D5B"/>
<path d="M160.974 15.981L160.89 15.246C159.686 15.918 158.496 16.254 157.32 16.254C156.242 16.254 155.388 15.974 154.758 15.414C154.128 14.84 153.813 14.056 153.813 13.062C153.813 12.012 154.163 11.214 154.863 10.668C155.577 10.108 156.62 9.828 157.992 9.828C158.818 9.828 159.756 9.926 160.806 10.122V8.694C160.806 6.944 159.819 6.069 157.845 6.069C157.327 6.069 156.76 6.139 156.144 6.279C155.528 6.419 154.961 6.601 154.443 6.825V5.838C154.947 5.6 155.521 5.411 156.165 5.271C156.823 5.131 157.446 5.061 158.034 5.061C159.35 5.061 160.344 5.376 161.016 6.006C161.702 6.622 162.045 7.518 162.045 8.694V15.876L160.974 15.981ZM157.614 15.246C158.118 15.246 158.65 15.169 159.21 15.015C159.77 14.861 160.302 14.651 160.806 14.385V11.025C159.924 10.857 159.056 10.773 158.202 10.773C157.124 10.773 156.34 10.955 155.85 11.319C155.36 11.683 155.115 12.257 155.115 13.041C155.115 14.511 155.948 15.246 157.614 15.246Z" fill="#013D5B"/>
<path d="M139.188 14.553C140.238 15.015 141.323 15.246 142.443 15.246C144.333 15.246 145.278 14.511 145.278 13.041C145.278 12.565 145.138 12.18 144.858 11.886C144.592 11.592 144.144 11.347 143.514 11.151L141.918 10.647C141.022 10.367 140.371 10.017 139.965 9.597C139.559 9.163 139.356 8.617 139.356 7.959C139.356 7.077 139.699 6.377 140.385 5.859C141.085 5.327 142.023 5.061 143.199 5.061C144.193 5.061 145.138 5.25 146.034 5.628V6.615C145.096 6.251 144.172 6.069 143.262 6.069C142.436 6.069 141.785 6.237 141.309 6.573C140.847 6.895 140.616 7.343 140.616 7.917C140.616 8.323 140.742 8.652 140.994 8.904C141.26 9.142 141.729 9.373 142.401 9.597L144.06 10.143C144.914 10.423 145.537 10.794 145.929 11.256C146.335 11.718 146.538 12.306 146.538 13.02C146.538 14.056 146.188 14.854 145.488 15.414C144.788 15.974 143.801 16.254 142.527 16.254C141.351 16.254 140.294 16.037 139.356 15.603L139.188 14.553Z" fill="#013D5B"/>
<path d="M128.94 19.572C129.934 19.39 130.711 19.04 131.271 18.522C131.831 18.004 132.349 17.178 132.825 16.044L128.793 5.376H130.116L133.413 14.637L136.815 5.376H138.075L134.043 15.834C133.665 16.842 133.266 17.661 132.846 18.291C132.44 18.935 131.957 19.439 131.397 19.803C130.837 20.181 130.109 20.468 129.213 20.664L128.94 19.572Z" fill="#013D5B"/>
<path d="M125.947 15.981L125.863 15.246C124.659 15.918 123.469 16.254 122.293 16.254C121.215 16.254 120.361 15.974 119.731 15.414C119.101 14.84 118.786 14.056 118.786 13.062C118.786 12.012 119.136 11.214 119.836 10.668C120.55 10.108 121.593 9.828 122.965 9.828C123.791 9.828 124.729 9.926 125.779 10.122V8.694C125.779 6.944 124.792 6.069 122.818 6.069C122.3 6.069 121.733 6.139 121.117 6.279C120.501 6.419 119.934 6.601 119.416 6.825V5.838C119.92 5.6 120.494 5.411 121.138 5.271C121.796 5.131 122.419 5.061 123.007 5.061C124.323 5.061 125.317 5.376 125.989 6.006C126.675 6.622 127.018 7.518 127.018 8.694V15.876L125.947 15.981ZM122.587 15.246C123.091 15.246 123.623 15.169 124.183 15.015C124.743 14.861 125.275 14.651 125.779 14.385V11.025C124.897 10.857 124.029 10.773 123.175 10.773C122.097 10.773 121.313 10.955 120.823 11.319C120.333 11.683 120.088 12.257 120.088 13.041C120.088 14.511 120.921 15.246 122.587 15.246Z" fill="#013D5B"/>
<path d="M115.958 0V15.876L114.887 15.981L114.803 15.246C113.613 15.918 112.521 16.254 111.527 16.254C110.155 16.254 109.077 15.778 108.293 14.826C107.509 13.86 107.117 12.53 107.117 10.836C107.117 8.974 107.558 7.546 108.44 6.552C109.336 5.558 110.624 5.061 112.304 5.061C113.172 5.061 113.97 5.173 114.698 5.397V0.168003L115.958 0ZM111.695 15.246C112.157 15.246 112.654 15.169 113.186 15.015C113.718 14.861 114.222 14.651 114.698 14.385V6.405C113.97 6.181 113.207 6.069 112.409 6.069C111.065 6.069 110.064 6.461 109.406 7.245C108.762 8.015 108.44 9.205 108.44 10.815C108.44 12.257 108.713 13.356 109.259 14.112C109.819 14.868 110.631 15.246 111.695 15.246Z" fill="#013D5B"/>
<path d="M97.9263 15.939V8.652C97.9263 6.93 97.0513 6.069 95.3013 6.069C94.8393 6.069 94.3283 6.146 93.7683 6.3C93.2223 6.454 92.6833 6.664 92.1513 6.93V15.939H90.8913V5.439L91.9623 5.334L92.0463 6.069C93.2643 5.397 94.4543 5.061 95.6163 5.061C96.7503 5.061 97.6253 5.355 98.2413 5.943C98.8713 6.531 99.1863 7.364 99.1863 8.442V15.939H97.9263Z" fill="#013D5B"/>
<path d="M87.6202 15.561C86.6542 16.023 85.6182 16.254 84.5122 16.254C82.9022 16.254 81.6632 15.778 80.7952 14.826C79.9272 13.874 79.4932 12.509 79.4932 10.731C79.4932 8.967 79.8992 7.581 80.7112 6.573C81.5232 5.565 82.6362 5.061 84.0502 5.061C85.2962 5.061 86.2762 5.453 86.9902 6.237C87.7182 7.007 88.0822 8.064 88.0822 9.408C88.0822 9.912 88.0402 10.395 87.9562 10.857H80.7322C80.7462 13.783 82.0412 15.246 84.6172 15.246C85.6532 15.246 86.6542 15.022 87.6202 14.574V15.561ZM84.0292 6.048C83.0772 6.048 82.3002 6.398 81.6982 7.098C81.0962 7.798 80.7742 8.736 80.7322 9.912H86.8642C86.8922 9.688 86.9062 9.492 86.9062 9.324C86.9062 8.288 86.6542 7.483 86.1502 6.909C85.6462 6.335 84.9392 6.048 84.0292 6.048Z" fill="#013D5B"/>
<path d="M73.1671 15.939L69.1771 5.376H70.5001L73.7971 14.595L77.1991 5.376H78.4591L74.3851 15.939H73.1671Z" fill="#013D5B"/>
<path d="M67.502 15.561C66.536 16.023 65.5 16.254 64.394 16.254C62.784 16.254 61.545 15.778 60.677 14.826C59.809 13.874 59.375 12.509 59.375 10.731C59.375 8.967 59.781 7.581 60.593 6.573C61.405 5.565 62.518 5.061 63.932 5.061C65.178 5.061 66.158 5.453 66.872 6.237C67.6 7.007 67.964 8.064 67.964 9.408C67.964 9.912 67.922 10.395 67.838 10.857H60.614C60.628 13.783 61.923 15.246 64.499 15.246C65.535 15.246 66.536 15.022 67.502 14.574V15.561ZM63.911 6.048C62.959 6.048 62.182 6.398 61.58 7.098C60.978 7.798 60.656 8.736 60.614 9.912H66.746C66.774 9.688 66.788 9.492 66.788 9.324C66.788 8.288 66.536 7.483 66.032 6.909C65.528 6.335 64.821 6.048 63.911 6.048Z" fill="#013D5B"/>
<path d="M50 14.553C51.05 15.015 52.135 15.246 53.255 15.246C55.145 15.246 56.09 14.511 56.09 13.041C56.09 12.565 55.95 12.18 55.67 11.886C55.404 11.592 54.956 11.347 54.326 11.151L52.73 10.647C51.834 10.367 51.183 10.017 50.777 9.597C50.371 9.163 50.168 8.617 50.168 7.959C50.168 7.077 50.511 6.377 51.197 5.859C51.897 5.327 52.835 5.061 54.011 5.061C55.005 5.061 55.95 5.25 56.846 5.628V6.615C55.908 6.251 54.984 6.069 54.074 6.069C53.248 6.069 52.597 6.237 52.121 6.573C51.659 6.895 51.428 7.343 51.428 7.917C51.428 8.323 51.554 8.652 51.806 8.904C52.072 9.142 52.541 9.373 53.213 9.597L54.872 10.143C55.726 10.423 56.349 10.794 56.741 11.256C57.147 11.718 57.35 12.306 57.35 13.02C57.35 14.056 57 14.854 56.3 15.414C55.6 15.974 54.613 16.254 53.339 16.254C52.163 16.254 51.106 16.037 50.168 15.603L50 14.553Z" fill="#013D5B"/>
<path d="M41.4839 16.149V8.862C41.4839 7.14 40.6089 6.279 38.8589 6.279C38.3969 6.279 37.8859 6.356 37.3259 6.51C36.7799 6.664 36.2409 6.874 35.7089 7.14V16.149H34.4489V5.649L35.5199 5.544L35.6039 6.279C36.8219 5.607 38.012 5.271 39.174 5.271C40.308 5.271 41.183 5.565 41.799 6.153C42.429 6.741 42.7439 7.574 42.7439 8.652V16.149H41.4839Z" fill="#013D5B"/>
<path d="M31.1778 15.771C30.2118 16.233 29.1758 16.464 28.0698 16.464C26.4598 16.464 25.2208 15.988 24.3528 15.036C23.4848 14.084 23.0508 12.719 23.0508 10.941C23.0508 9.177 23.4568 7.791 24.2688 6.783C25.0808 5.775 26.1938 5.271 27.6078 5.271C28.8538 5.271 29.8338 5.663 30.5478 6.447C31.2758 7.217 31.6398 8.274 31.6398 9.618C31.6398 10.122 31.5978 10.605 31.5138 11.067H24.2898C24.3038 13.993 25.5988 15.456 28.1748 15.456C29.2108 15.456 30.2118 15.232 31.1778 14.784V15.771ZM27.5868 6.258C26.6348 6.258 25.8578 6.608 25.2558 7.308C24.6538 8.008 24.3318 8.946 24.2898 10.122H30.4218C30.4498 9.898 30.4638 9.702 30.4638 9.534C30.4638 8.498 30.2118 7.693 29.7078 7.119C29.2038 6.545 28.4968 6.258 27.5868 6.258Z" fill="#013D5B"/>
<path d="M12.0749 20.832V5.649L13.1459 5.544L13.2299 6.279C14.4199 5.607 15.5119 5.271 16.5059 5.271C17.8779 5.271 18.9559 5.754 19.7399 6.72C20.5239 7.672 20.9159 8.995 20.9159 10.689C20.9159 12.551 20.4679 13.979 19.5719 14.973C18.6899 15.967 17.4089 16.464 15.7289 16.464C14.8609 16.464 14.0629 16.352 13.3349 16.128V20.664L12.0749 20.832ZM16.3379 6.279C15.8759 6.279 15.3789 6.356 14.8469 6.51C14.3149 6.664 13.8109 6.874 13.3349 7.14V15.12C14.0629 15.344 14.8259 15.456 15.6239 15.456C16.9679 15.456 17.9619 15.071 18.6059 14.301C19.2639 13.517 19.5929 12.32 19.5929 10.71C19.5929 9.268 19.3129 8.169 18.7529 7.413C18.2069 6.657 17.4019 6.279 16.3379 6.279Z" fill="#013D5B"/>
<path d="M4.62 16.464C3.09399 16.464 1.939 15.995 1.155 15.057C0.384999 14.105 0 12.705 0 10.857C0 9.023 0.384999 7.637 1.155 6.699C1.939 5.747 3.09399 5.271 4.62 5.271C6.146 5.271 7.29401 5.747 8.06401 6.699C8.84801 7.637 9.24001 9.023 9.24001 10.857C9.24001 12.705 8.84801 14.105 8.06401 15.057C7.29401 15.995 6.146 16.464 4.62 16.464ZM4.62 15.456C5.76799 15.456 6.601 15.092 7.119 14.364C7.651 13.622 7.91701 12.453 7.91701 10.857C7.91701 9.275 7.651 8.12 7.119 7.392C6.601 6.65 5.76799 6.279 4.62 6.279C3.47199 6.279 2.63201 6.65 2.10001 7.392C1.58201 8.12 1.323 9.275 1.323 10.857C1.323 12.453 1.58201 13.622 2.10001 14.364C2.63201 15.092 3.47199 15.456 4.62 15.456Z" fill="#013D5B"/>
</svg>
