<svg width="111" height="15" viewBox="0 0 111 15" fill="none" xmlns="http://www.w3.org/2000/svg">
<path d="M105.515 10.545C106.265 10.875 107.04 11.04 107.84 11.04C109.19 11.04 109.865 10.515 109.865 9.46502C109.865 9.12502 109.765 8.85001 109.565 8.64001C109.375 8.43001 109.055 8.25501 108.605 8.11502L107.465 7.75501C106.825 7.55501 106.36 7.30501 106.07 7.00501C105.78 6.69501 105.635 6.30501 105.635 5.83501C105.635 5.20501 105.88 4.70501 106.37 4.33501C106.87 3.95501 107.54 3.76501 108.38 3.76501C109.09 3.76501 109.765 3.90002 110.405 4.17002V4.87502C109.735 4.61502 109.075 4.48501 108.425 4.48501C107.835 4.48501 107.37 4.60501 107.03 4.84501C106.7 5.07501 106.535 5.39502 106.535 5.80502C106.535 6.09502 106.625 6.33002 106.805 6.51002C106.995 6.68002 107.33 6.84501 107.81 7.00501L108.995 7.39502C109.605 7.59502 110.05 7.86002 110.33 8.19002C110.62 8.52002 110.765 8.94002 110.765 9.45002C110.765 10.19 110.515 10.76 110.015 11.16C109.515 11.56 108.81 11.76 107.9 11.76C107.06 11.76 106.305 11.605 105.635 11.295L105.515 10.545Z" fill="#013D5B"/>
<path d="M103.763 11.265C103.073 11.595 102.333 11.76 101.543 11.76C100.393 11.76 99.5081 11.42 98.8881 10.74C98.2681 10.06 97.9581 9.085 97.9581 7.815C97.9581 6.555 98.2481 5.565 98.8281 4.845C99.4081 4.125 100.203 3.765 101.213 3.765C102.103 3.765 102.803 4.045 103.313 4.605C103.833 5.155 104.093 5.91 104.093 6.87C104.093 7.23 104.063 7.575 104.003 7.905H98.8431C98.8531 9.995 99.7781 11.04 101.618 11.04C102.358 11.04 103.073 10.88 103.763 10.56V11.265ZM101.198 4.47C100.518 4.47 99.9631 4.72 99.5331 5.22C99.1031 5.72 98.8731 6.39 98.8431 7.23H103.223C103.243 7.07 103.253 6.93 103.253 6.81C103.253 6.07 103.073 5.495 102.713 5.085C102.353 4.675 101.848 4.47 101.198 4.47ZM100.358 2.745L102.023 0.690002H103.163L101.168 2.745H100.358Z" fill="#013D5B"/>
<path d="M94.0049 11.535V4.68H92.8649V4.035L94.0049 3.99V2.295C94.0049 1.555 94.1849 0.989998 94.5449 0.599998C94.9149 0.199998 95.4499 0 96.1499 0C96.5299 0 96.9149 0.0699991 97.3049 0.209999V0.869999C96.9449 0.759999 96.5999 0.704998 96.2699 0.704998C95.7999 0.704998 95.4549 0.83 95.2349 1.08C95.0149 1.32 94.9049 1.7 94.9049 2.22V3.99H96.9299V4.68H94.9049V11.535H94.0049Z" fill="#013D5B"/>
<path d="M90.6219 11.565L90.5619 11.04C89.7019 11.52 88.8519 11.76 88.0119 11.76C87.2419 11.76 86.6319 11.56 86.1819 11.16C85.7319 10.75 85.5069 10.19 85.5069 9.48001C85.5069 8.73001 85.7569 8.16002 86.2569 7.77002C86.7669 7.37002 87.5119 7.17002 88.4919 7.17002C89.0819 7.17002 89.7519 7.24001 90.5019 7.38001V6.36001C90.5019 5.11001 89.7969 4.48501 88.3869 4.48501C88.0169 4.48501 87.6119 4.53502 87.1719 4.63502C86.7319 4.73502 86.3269 4.86501 85.9569 5.02501V4.32001C86.3169 4.15002 86.7269 4.01501 87.1869 3.91501C87.6569 3.81501 88.1019 3.76501 88.5219 3.76501C89.4619 3.76501 90.1719 3.99001 90.6519 4.44001C91.1419 4.88001 91.3869 5.52001 91.3869 6.36001V11.49L90.6219 11.565ZM88.2219 11.04C88.5819 11.04 88.9619 10.985 89.3619 10.875C89.7619 10.765 90.1419 10.615 90.5019 10.425V8.02501C89.8719 7.90501 89.2519 7.84501 88.6419 7.84501C87.8719 7.84501 87.3119 7.97501 86.9619 8.23501C86.6119 8.49501 86.4369 8.90502 86.4369 9.46502C86.4369 10.515 87.0319 11.04 88.2219 11.04Z" fill="#013D5B"/>
<path d="M83.945 11.115C83.085 11.545 82.185 11.76 81.245 11.76C79.915 11.76 78.875 11.28 78.125 10.32C77.375 9.35 77 8.005 77 6.285C77 4.565 77.375 3.225 78.125 2.265C78.875 1.295 79.915 0.809998 81.245 0.809998C82.155 0.809998 83.04 1.025 83.9 1.455V2.22C83.44 2 83.01 1.84 82.61 1.74C82.21 1.64 81.795 1.59 81.365 1.59C80.255 1.59 79.415 1.99 78.845 2.79C78.285 3.58 78.005 4.745 78.005 6.285C78.005 7.825 78.285 8.995 78.845 9.795C79.415 10.585 80.255 10.98 81.365 10.98C82.215 10.98 83.075 10.77 83.945 10.35V11.115Z" fill="#013D5B"/>
<path d="M72.6273 11.115C71.9373 11.445 71.1973 11.61 70.4073 11.61C69.2573 11.61 68.3723 11.27 67.7523 10.59C67.1323 9.91002 66.8223 8.93502 66.8223 7.66502C66.8223 6.40502 67.1123 5.41502 67.6923 4.69502C68.2723 3.97502 69.0673 3.61502 70.0773 3.61502C70.9673 3.61502 71.6673 3.89502 72.1773 4.45502C72.6973 5.00502 72.9573 5.76002 72.9573 6.72002C72.9573 7.08002 72.9273 7.42502 72.8673 7.75502H67.7073C67.7173 9.84502 68.6423 10.89 70.4823 10.89C71.2223 10.89 71.9373 10.73 72.6273 10.41V11.115ZM70.0623 4.32002C69.3823 4.32002 68.8273 4.57002 68.3973 5.07002C67.9673 5.57002 67.7373 6.24002 67.7073 7.08002H72.0873C72.1073 6.92002 72.1173 6.78002 72.1173 6.66002C72.1173 5.92002 71.9373 5.34502 71.5773 4.93502C71.2173 4.52502 70.7123 4.32002 70.0623 4.32002Z" fill="#013D5B"/>
<path d="M64.0074 11.385V6.18002C64.0074 4.95002 63.3824 4.33502 62.1324 4.33502C61.8024 4.33502 61.4374 4.39002 61.0374 4.50002C60.6474 4.61002 60.2624 4.76002 59.8824 4.95002V11.385H58.9824V3.88502L59.7474 3.81002L59.8074 4.33502C60.6774 3.85502 61.5274 3.61502 62.3574 3.61502C63.1674 3.61502 63.7924 3.82502 64.2324 4.24502C64.6824 4.66502 64.9074 5.26002 64.9074 6.03002V11.385H64.0074Z" fill="#013D5B"/>
<path d="M52.498 10.845C54.698 10.845 55.798 9.275 55.798 6.135C55.798 2.995 54.698 1.425 52.498 1.425C50.298 1.425 49.198 2.995 49.198 6.135C49.198 9.275 50.298 10.845 52.498 10.845ZM52.498 11.61C51.118 11.61 50.058 11.135 49.318 10.185C48.578 9.235 48.208 7.885 48.208 6.135C48.208 4.385 48.578 3.035 49.318 2.085C50.058 1.135 51.118 0.660004 52.498 0.660004C53.878 0.660004 54.938 1.135 55.678 2.085C56.418 3.035 56.788 4.385 56.788 6.135C56.788 7.885 56.418 9.235 55.678 10.185C54.938 11.135 53.878 11.61 52.498 11.61Z" fill="#013D5B"/>
<path d="M41.3749 11.385V0.12L42.2749 0V11.385H41.3749Z" fill="#013D5B"/>
<path d="M38.202 11.415L38.142 10.89C37.282 11.37 36.432 11.61 35.592 11.61C34.822 11.61 34.212 11.41 33.762 11.01C33.312 10.6 33.087 10.04 33.087 9.33002C33.087 8.58002 33.337 8.01002 33.837 7.62002C34.347 7.22002 35.092 7.02002 36.072 7.02002C36.662 7.02002 37.332 7.09002 38.082 7.23002V6.21002C38.082 4.96002 37.377 4.33502 35.967 4.33502C35.597 4.33502 35.192 4.38502 34.752 4.48502C34.312 4.58502 33.907 4.71502 33.537 4.87502V4.17002C33.897 4.00002 34.307 3.86502 34.767 3.76502C35.237 3.66502 35.682 3.61502 36.102 3.61502C37.042 3.61502 37.752 3.84002 38.232 4.29002C38.722 4.73002 38.967 5.37002 38.967 6.21002V11.34L38.202 11.415ZM35.802 10.89C36.162 10.89 36.542 10.835 36.942 10.725C37.342 10.615 37.722 10.465 38.082 10.275V7.87502C37.452 7.75502 36.832 7.69502 36.222 7.69502C35.452 7.69502 34.892 7.82502 34.542 8.08502C34.192 8.34502 34.017 8.75502 34.017 9.31502C34.017 10.365 34.612 10.89 35.802 10.89Z" fill="#013D5B"/>
<path d="M29.6529 4.53002V9.33002C29.6529 9.85002 29.7629 10.235 29.9829 10.485C30.2029 10.725 30.5429 10.845 31.0029 10.845C31.3029 10.845 31.6429 10.79 32.0229 10.68V11.34C31.6029 11.48 31.2179 11.55 30.8679 11.55C30.1779 11.55 29.6529 11.365 29.2929 10.995C28.9329 10.615 28.7529 10.055 28.7529 9.31502V4.53002H27.6129V3.88502L28.7829 3.84002L28.8729 1.95002L29.6529 1.86002V3.84002H31.9179V4.53002H29.6529Z" fill="#013D5B"/>
<path d="M25.1298 11.385V3.915L26.0298 3.795V11.385H25.1298ZM25.5798 2.01C25.3798 2.01 25.2148 1.95 25.0848 1.83C24.9648 1.71 24.9048 1.545 24.9048 1.335C24.9048 1.125 24.9648 0.960004 25.0848 0.840004C25.2148 0.720004 25.3798 0.660004 25.5798 0.660004C25.7798 0.660004 25.9398 0.720004 26.0598 0.840004C26.1898 0.960004 26.2548 1.125 26.2548 1.335C26.2548 1.545 26.1898 1.71 26.0598 1.83C25.9398 1.95 25.7798 2.01 25.5798 2.01Z" fill="#013D5B"/>
<path d="M16.7949 14.73V3.88502L17.5599 3.81002L17.6199 4.33502C18.4699 3.85502 19.2499 3.61502 19.9599 3.61502C20.9399 3.61502 21.7099 3.96002 22.2699 4.65002C22.8299 5.33002 23.1099 6.27502 23.1099 7.48502C23.1099 8.81502 22.7899 9.83502 22.1499 10.545C21.5199 11.255 20.6049 11.61 19.4049 11.61C18.7849 11.61 18.2149 11.53 17.6949 11.37V14.61L16.7949 14.73ZM19.8399 4.33502C19.5099 4.33502 19.1549 4.39002 18.7749 4.50002C18.3949 4.61002 18.0349 4.76002 17.6949 4.95002V10.65C18.2149 10.81 18.7599 10.89 19.3299 10.89C20.2899 10.89 20.9999 10.615 21.4599 10.065C21.9299 9.50502 22.1649 8.65002 22.1649 7.50002C22.1649 6.47002 21.9649 5.68502 21.5649 5.14502C21.1749 4.60502 20.5999 4.33502 19.8399 4.33502Z" fill="#013D5B"/>
<path d="M13.6219 11.415L13.5619 10.89C12.7019 11.37 11.8519 11.61 11.0119 11.61C10.2419 11.61 9.6319 11.41 9.1819 11.01C8.7319 10.6 8.5069 10.04 8.5069 9.33002C8.5069 8.58002 8.7569 8.01002 9.2569 7.62002C9.7669 7.22002 10.5119 7.02002 11.4919 7.02002C12.0819 7.02002 12.7519 7.09002 13.5019 7.23002V6.21002C13.5019 4.96002 12.7969 4.33502 11.3869 4.33502C11.0169 4.33502 10.6119 4.38502 10.1719 4.48502C9.7319 4.58502 9.3269 4.71502 8.9569 4.87502V4.17002C9.3169 4.00002 9.7269 3.86502 10.1869 3.76502C10.6569 3.66502 11.1019 3.61502 11.5219 3.61502C12.4619 3.61502 13.1719 3.84002 13.6519 4.29002C14.1419 4.73002 14.3869 5.37002 14.3869 6.21002V11.34L13.6219 11.415ZM11.2219 10.89C11.5819 10.89 11.9619 10.835 12.3619 10.725C12.7619 10.615 13.1419 10.465 13.5019 10.275V7.87502C12.8719 7.75502 12.2519 7.69502 11.6419 7.69502C10.8719 7.69502 10.3119 7.82502 9.9619 8.08502C9.6119 8.34502 9.4369 8.75502 9.4369 9.31502C9.4369 10.365 10.0319 10.89 11.2219 10.89Z" fill="#013D5B"/>
<path d="M6.945 10.965C6.085 11.395 5.185 11.61 4.245 11.61C2.915 11.61 1.875 11.13 1.125 10.17C0.375 9.2 0 7.855 0 6.135C0 4.415 0.375 3.075 1.125 2.115C1.875 1.145 2.915 0.660004 4.245 0.660004C5.155 0.660004 6.04 0.875003 6.9 1.305V2.07C6.44 1.85 6.01 1.69 5.61 1.59C5.21 1.49 4.795 1.44 4.365 1.44C3.255 1.44 2.415 1.84 1.845 2.64C1.285 3.43 1.005 4.595 1.005 6.135C1.005 7.675 1.285 8.845 1.845 9.645C2.415 10.435 3.255 10.83 4.365 10.83C5.215 10.83 6.075 10.62 6.945 10.2V10.965Z" fill="#013D5B"/>
</svg>
