<svg width="166" height="22" viewBox="0 0 166 22" fill="none" xmlns="http://www.w3.org/2000/svg">
<path d="M157.821 15.466C158.921 15.95 160.058 16.192 161.231 16.192C163.211 16.192 164.201 15.422 164.201 13.882C164.201 13.3833 164.055 12.98 163.761 12.672C163.483 12.364 163.013 12.1073 162.353 11.902L160.681 11.374C159.743 11.0807 159.061 10.714 158.635 10.274C158.21 9.81934 157.997 9.24734 157.997 8.558C157.997 7.634 158.357 6.90067 159.075 6.358C159.809 5.80067 160.791 5.522 162.023 5.522C163.065 5.522 164.055 5.72 164.993 6.116V7.15C164.011 6.76867 163.043 6.578 162.089 6.578C161.224 6.578 160.542 6.754 160.043 7.106C159.559 7.44334 159.317 7.91267 159.317 8.514C159.317 8.93934 159.449 9.284 159.713 9.548C159.992 9.79734 160.483 10.0393 161.187 10.274L162.925 10.846C163.82 11.1393 164.473 11.528 164.883 12.012C165.309 12.496 165.521 13.112 165.521 13.86C165.521 14.9453 165.155 15.7813 164.421 16.368C163.688 16.9547 162.654 17.248 161.319 17.248C160.087 17.248 158.98 17.0207 157.997 16.566L157.821 15.466Z" fill="#013D5B"/>
<path d="M155.253 16.522C154.241 17.006 153.155 17.248 151.997 17.248C150.31 17.248 149.012 16.7493 148.103 15.752C147.193 14.7547 146.739 13.3247 146.739 11.462C146.739 9.61399 147.164 8.16199 148.015 7.106C148.865 6.05 150.031 5.522 151.513 5.522C152.818 5.522 153.845 5.93266 154.593 6.75399C155.355 7.56066 155.737 8.668 155.737 10.076C155.737 10.604 155.693 11.11 155.605 11.594H148.037C148.051 14.6593 149.408 16.192 152.107 16.192C153.192 16.192 154.241 15.9573 155.253 15.488V16.522ZM151.491 6.556C150.493 6.556 149.679 6.92266 149.049 7.65599C148.418 8.38933 148.081 9.372 148.037 10.604H154.461C154.49 10.3693 154.505 10.164 154.505 9.988C154.505 8.90266 154.241 8.05933 153.713 7.458C153.185 6.85666 152.444 6.556 151.491 6.556ZM150.259 4.02599L152.701 1.01199H154.373L151.447 4.02599H150.259Z" fill="#013D5B"/>
<path d="M140.94 16.918V6.864H139.268V5.918L140.94 5.852V3.366C140.94 2.28066 141.204 1.452 141.732 0.879997C142.275 0.29333 143.06 0 144.086 0C144.644 0 145.208 0.102665 145.78 0.307999V1.276C145.252 1.11466 144.746 1.034 144.262 1.034C143.573 1.034 143.067 1.21733 142.744 1.584C142.422 1.936 142.26 2.49333 142.26 3.256V5.852H145.23V6.864H142.26V16.918H140.94Z" fill="#013D5B"/>
<path d="M135.979 16.962L135.891 16.192C134.629 16.896 133.383 17.248 132.151 17.248C131.021 17.248 130.127 16.9547 129.467 16.368C128.807 15.7667 128.477 14.9453 128.477 13.904C128.477 12.804 128.843 11.968 129.577 11.396C130.325 10.8093 131.417 10.516 132.855 10.516C133.72 10.516 134.703 10.6187 135.803 10.824V9.328C135.803 7.49467 134.769 6.578 132.701 6.578C132.158 6.578 131.564 6.65134 130.919 6.798C130.273 6.94467 129.679 7.13534 129.137 7.37V6.336C129.665 6.08667 130.266 5.88867 130.941 5.742C131.63 5.59534 132.283 5.522 132.899 5.522C134.277 5.522 135.319 5.852 136.023 6.512C136.741 7.15733 137.101 8.096 137.101 9.328V16.852L135.979 16.962ZM132.459 16.192C132.987 16.192 133.544 16.1113 134.131 15.95C134.717 15.7887 135.275 15.5687 135.803 15.29V11.77C134.879 11.594 133.969 11.506 133.075 11.506C131.945 11.506 131.124 11.6967 130.611 12.078C130.097 12.4593 129.841 13.0607 129.841 13.882C129.841 15.422 130.713 16.192 132.459 16.192Z" fill="#013D5B"/>
<path d="M126.186 16.302C124.925 16.9327 123.605 17.248 122.226 17.248C120.275 17.248 118.75 16.544 117.65 15.136C116.55 13.7133 116 11.7407 116 9.21799C116 6.69532 116.55 4.72999 117.65 3.32199C118.75 1.89932 120.275 1.18799 122.226 1.18799C123.561 1.18799 124.859 1.50332 126.12 2.13399V3.25599C125.445 2.93332 124.815 2.69865 124.228 2.55199C123.641 2.40532 123.033 2.33199 122.402 2.33199C120.774 2.33199 119.542 2.91865 118.706 4.09199C117.885 5.25065 117.474 6.95932 117.474 9.21799C117.474 11.4767 117.885 13.1927 118.706 14.366C119.542 15.5247 120.774 16.104 122.402 16.104C123.649 16.104 124.91 15.796 126.186 15.18V16.302Z" fill="#013D5B"/>
<path d="M106.52 16.302C105.508 16.786 104.423 17.028 103.264 17.028C101.577 17.028 100.279 16.5293 99.3701 15.532C98.4608 14.5347 98.0061 13.1047 98.0061 11.242C98.0061 9.394 98.4314 7.942 99.2821 6.886C100.133 5.83 101.299 5.302 102.78 5.302C104.085 5.302 105.112 5.71267 105.86 6.534C106.623 7.34067 107.004 8.448 107.004 9.856C107.004 10.384 106.96 10.89 106.872 11.374H99.3041C99.3188 14.4393 100.675 15.972 103.374 15.972C104.459 15.972 105.508 15.7373 106.52 15.268V16.302ZM102.758 6.336C101.761 6.336 100.947 6.70267 100.316 7.436C99.6854 8.16933 99.3481 9.152 99.3041 10.384H105.728C105.757 10.1493 105.772 9.944 105.772 9.768C105.772 8.68267 105.508 7.83933 104.98 7.238C104.452 6.63667 103.711 6.336 102.758 6.336Z" fill="#013D5B"/>
<path d="M93.8774 16.698V9.064C93.8774 7.26 92.9608 6.358 91.1274 6.358C90.6434 6.358 90.1081 6.43867 89.5214 6.6C88.9494 6.76133 88.3848 6.98133 87.8274 7.26V16.698H86.5074V5.698L87.6294 5.588L87.7174 6.358C88.9934 5.654 90.2401 5.302 91.4574 5.302C92.6454 5.302 93.5621 5.61 94.2074 6.226C94.8674 6.842 95.1974 7.71467 95.1974 8.844V16.698H93.8774Z" fill="#013D5B"/>
<path d="M76.9971 15.906C80.2238 15.906 81.8371 13.6033 81.8371 8.99799C81.8371 4.39265 80.2238 2.08999 76.9971 2.08999C73.7704 2.08999 72.1571 4.39265 72.1571 8.99799C72.1571 13.6033 73.7704 15.906 76.9971 15.906ZM76.9971 17.028C74.9731 17.028 73.4184 16.3313 72.3331 14.938C71.2477 13.5447 70.7051 11.5647 70.7051 8.99799C70.7051 6.43132 71.2477 4.45132 72.3331 3.05799C73.4184 1.66465 74.9731 0.967987 76.9971 0.967987C79.0211 0.967987 80.5758 1.66465 81.6611 3.05799C82.7464 4.45132 83.2891 6.43132 83.2891 8.99799C83.2891 11.5647 82.7464 13.5447 81.6611 14.938C80.5758 16.3313 79.0211 17.028 76.9971 17.028Z" fill="#013D5B"/>
<path d="M60.6832 16.698V0.176L62.0032 0V16.698H60.6832Z" fill="#013D5B"/>
<path d="M56.0296 16.742L55.9416 15.972C54.6803 16.676 53.4336 17.028 52.2016 17.028C51.0723 17.028 50.1776 16.7347 49.5176 16.148C48.8576 15.5467 48.5276 14.7253 48.5276 13.684C48.5276 12.584 48.8943 11.748 49.6276 11.176C50.3756 10.5893 51.4683 10.296 52.9056 10.296C53.7709 10.296 54.7536 10.3987 55.8536 10.604V9.108C55.8536 7.27467 54.8196 6.358 52.7516 6.358C52.2089 6.358 51.6149 6.43133 50.9696 6.578C50.3243 6.72467 49.7303 6.91533 49.1876 7.15V6.116C49.7156 5.86667 50.3169 5.66867 50.9916 5.522C51.6809 5.37533 52.3336 5.302 52.9496 5.302C54.3283 5.302 55.3696 5.632 56.0736 6.292C56.7923 6.93734 57.1516 7.876 57.1516 9.108V16.632L56.0296 16.742ZM52.5096 15.972C53.0376 15.972 53.5949 15.8913 54.1816 15.73C54.7683 15.5687 55.3256 15.3487 55.8536 15.07V11.55C54.9296 11.374 54.0203 11.286 53.1256 11.286C51.9963 11.286 51.1749 11.4767 50.6616 11.858C50.1482 12.2393 49.8916 12.8407 49.8916 13.662C49.8916 15.202 50.7643 15.972 52.5096 15.972Z" fill="#013D5B"/>
<path d="M43.4909 6.644V13.684C43.4909 14.4467 43.6522 15.0113 43.9749 15.378C44.2976 15.73 44.7962 15.906 45.4709 15.906C45.9109 15.906 46.4096 15.8253 46.9669 15.664V16.632C46.3509 16.8373 45.7862 16.94 45.2729 16.94C44.2609 16.94 43.4909 16.6687 42.9629 16.126C42.4349 15.5687 42.1709 14.7473 42.1709 13.662V6.644H40.4989V5.698L42.2149 5.632L42.3469 2.86L43.4909 2.728V5.632H46.8129V6.644H43.4909Z" fill="#013D5B"/>
<path d="M36.8571 16.698V5.74199L38.1771 5.56599V16.698H36.8571ZM37.5171 2.94799C37.2238 2.94799 36.9818 2.85999 36.7911 2.68399C36.6151 2.50799 36.5271 2.26599 36.5271 1.95799C36.5271 1.64999 36.6151 1.40799 36.7911 1.23199C36.9818 1.05599 37.2238 0.967987 37.5171 0.967987C37.8104 0.967987 38.0451 1.05599 38.2211 1.23199C38.4118 1.40799 38.5071 1.64999 38.5071 1.95799C38.5071 2.26599 38.4118 2.50799 38.2211 2.68399C38.0451 2.85999 37.8104 2.94799 37.5171 2.94799Z" fill="#013D5B"/>
<path d="M24.6324 21.604V5.698L25.7544 5.588L25.8424 6.358C27.0891 5.654 28.2331 5.302 29.2744 5.302C30.7118 5.302 31.8411 5.808 32.6624 6.82C33.4838 7.81734 33.8944 9.20333 33.8944 10.978C33.8944 12.9287 33.4251 14.4247 32.4865 15.466C31.5625 16.5073 30.2204 17.028 28.4604 17.028C27.5511 17.028 26.7151 16.9107 25.9524 16.676V21.428L24.6324 21.604ZM29.0984 6.358C28.6144 6.358 28.0938 6.43867 27.5364 6.6C26.9791 6.76133 26.4511 6.98133 25.9524 7.26V15.62C26.7151 15.8547 27.5144 15.972 28.3504 15.972C29.7584 15.972 30.7998 15.5687 31.4744 14.762C32.1638 13.9407 32.5084 12.6867 32.5084 11C32.5084 9.48934 32.2151 8.338 31.6284 7.546C31.0564 6.754 30.2131 6.358 29.0984 6.358Z" fill="#013D5B"/>
<path d="M19.9788 16.742L19.8908 15.972C18.6295 16.676 17.3828 17.028 16.1508 17.028C15.0215 17.028 14.1268 16.7347 13.4668 16.148C12.8068 15.5467 12.4768 14.7253 12.4768 13.684C12.4768 12.584 12.8435 11.748 13.5768 11.176C14.3248 10.5893 15.4175 10.296 16.8548 10.296C17.7201 10.296 18.7028 10.3987 19.8028 10.604V9.108C19.8028 7.27467 18.7688 6.358 16.7008 6.358C16.1581 6.358 15.5641 6.43133 14.9188 6.578C14.2735 6.72467 13.6795 6.91533 13.1368 7.15V6.116C13.6648 5.86667 14.2661 5.66867 14.9408 5.522C15.6301 5.37533 16.2828 5.302 16.8988 5.302C18.2775 5.302 19.3188 5.632 20.0228 6.292C20.7415 6.93734 21.1008 7.876 21.1008 9.108V16.632L19.9788 16.742ZM16.4588 15.972C16.9868 15.972 17.5441 15.8913 18.1308 15.73C18.7175 15.5687 19.2748 15.3487 19.8028 15.07V11.55C18.8788 11.374 17.9695 11.286 17.0748 11.286C15.9455 11.286 15.1241 11.4767 14.6108 11.858C14.0975 12.2393 13.8408 12.8407 13.8408 13.662C13.8408 15.202 14.7135 15.972 16.4588 15.972Z" fill="#013D5B"/>
<path d="M10.186 16.082C8.92467 16.7127 7.60467 17.028 6.226 17.028C4.27533 17.028 2.75 16.324 1.65 14.916C0.550001 13.4933 0 11.5207 0 8.99799C0 6.47532 0.550001 4.50999 1.65 3.10199C2.75 1.67932 4.27533 0.967987 6.226 0.967987C7.56067 0.967987 8.85867 1.28332 10.12 1.91399V3.03599C9.44534 2.71332 8.81467 2.47865 8.228 2.33199C7.64133 2.18532 7.03267 2.11199 6.402 2.11199C4.774 2.11199 3.542 2.69865 2.706 3.87199C1.88467 5.03065 1.474 6.73932 1.474 8.99799C1.474 11.2567 1.88467 12.9727 2.706 14.146C3.542 15.3047 4.774 15.884 6.402 15.884C7.64867 15.884 8.91 15.576 10.186 14.96V16.082Z" fill="#013D5B"/>
</svg>
