<svg width="140" height="17" viewBox="0 0 140 17" fill="none" xmlns="http://www.w3.org/2000/svg">
<path d="M138.066 11.396V3.762C138.066 1.958 137.149 1.056 135.316 1.056C134.832 1.056 134.296 1.13667 133.71 1.298C133.138 1.45934 132.573 1.67933 132.016 1.958V11.396H130.696V0.396004L131.818 0.286003L131.906 1.056C133.182 0.352 134.428 0 135.646 0C136.834 0 137.75 0.308004 138.396 0.924004C139.056 1.54 139.386 2.41267 139.386 3.542V11.396H138.066Z" fill="#013D5B"/>
<path d="M127.269 11C126.257 11.484 125.172 11.726 124.013 11.726C122.326 11.726 121.028 11.2273 120.119 10.23C119.21 9.23267 118.755 7.80267 118.755 5.94C118.755 4.092 119.18 2.64001 120.031 1.58401C120.882 0.528007 122.048 0 123.529 0C124.834 0 125.861 0.410669 126.609 1.232C127.372 2.03867 127.753 3.146 127.753 4.554C127.753 5.082 127.709 5.58801 127.621 6.07201H120.053C120.068 9.13734 121.424 10.67 124.123 10.67C125.208 10.67 126.257 10.4353 127.269 9.966V11ZM123.507 1.034C122.51 1.034 121.696 1.40067 121.065 2.134C120.434 2.86734 120.097 3.85 120.053 5.082H126.477C126.506 4.84733 126.521 4.642 126.521 4.466C126.521 3.38067 126.257 2.53734 125.729 1.936C125.201 1.33467 124.46 1.034 123.507 1.034Z" fill="#013D5B"/>
<path d="M112.128 11.396L107.948 0.329987H109.334L112.788 9.98799L116.352 0.329987H117.672L113.404 11.396H112.128Z" fill="#013D5B"/>
<path d="M106.193 11C105.181 11.484 104.095 11.726 102.937 11.726C101.25 11.726 99.952 11.2273 99.0427 10.23C98.1334 9.23267 97.6787 7.80267 97.6787 5.94C97.6787 4.092 98.104 2.64001 98.9547 1.58401C99.8054 0.528007 100.971 0 102.453 0C103.758 0 104.785 0.410669 105.533 1.232C106.295 2.03867 106.677 3.146 106.677 4.554C106.677 5.082 106.633 5.58801 106.545 6.07201H98.9767C98.9914 9.13734 100.348 10.67 103.047 10.67C104.132 10.67 105.181 10.4353 106.193 9.966V11ZM102.431 1.034C101.433 1.034 100.619 1.40067 99.9887 2.134C99.358 2.86734 99.0207 3.85 98.9767 5.082H105.401C105.43 4.84733 105.445 4.642 105.445 4.466C105.445 3.38067 105.181 2.53734 104.653 1.936C104.125 1.33467 103.384 1.034 102.431 1.034Z" fill="#013D5B"/>
<path d="M87.8572 9.944C88.9572 10.428 90.0938 10.67 91.2672 10.67C93.2472 10.67 94.2372 9.9 94.2372 8.36C94.2372 7.86133 94.0905 7.458 93.7972 7.15C93.5185 6.842 93.0492 6.58534 92.3892 6.38L90.7172 5.85201C89.7785 5.55867 89.0965 5.19201 88.6712 4.75201C88.2458 4.29734 88.0332 3.72534 88.0332 3.036C88.0332 2.112 88.3925 1.37867 89.1112 0.836006C89.8445 0.278673 90.8272 0 92.0592 0C93.1005 0 94.0905 0.198002 95.0292 0.594002V1.62801C94.0465 1.24667 93.0785 1.056 92.1252 1.056C91.2598 1.056 90.5778 1.23201 90.0792 1.58401C89.5952 1.92134 89.3532 2.39067 89.3532 2.992C89.3532 3.41734 89.4852 3.762 89.7492 4.026C90.0278 4.27533 90.5192 4.51734 91.2232 4.75201L92.9612 5.32401C93.8558 5.61734 94.5085 6.00601 94.9192 6.49001C95.3445 6.97401 95.5572 7.59 95.5572 8.33801C95.5572 9.42334 95.1905 10.2593 94.4572 10.846C93.7238 11.4327 92.6898 11.726 91.3552 11.726C90.1232 11.726 89.0158 11.4987 88.0332 11.044L87.8572 9.944Z" fill="#013D5B"/>
<path d="M78.9514 11.918V4.284C78.9514 2.48 78.0347 1.578 76.2014 1.578C75.7174 1.578 75.1821 1.65867 74.5954 1.82C74.0234 1.98134 73.4587 2.20134 72.9014 2.48V11.918H71.5814V0.918003L72.7034 0.808002L72.7914 1.578C74.0674 0.874003 75.3141 0.522003 76.5314 0.522003C77.7194 0.522003 78.6361 0.830003 79.2814 1.446C79.9414 2.062 80.2714 2.93467 80.2714 4.064V11.918H78.9514Z" fill="#013D5B"/>
<path d="M68.1546 11.522C67.1426 12.006 66.0573 12.248 64.8986 12.248C63.212 12.248 61.914 11.7493 61.0046 10.752C60.0953 9.75467 59.6406 8.32467 59.6406 6.462C59.6406 4.614 60.066 3.162 60.9166 2.106C61.7673 1.05 62.9333 0.522003 64.4146 0.522003C65.72 0.522003 66.7466 0.932668 67.4946 1.754C68.2573 2.56067 68.6386 3.668 68.6386 5.076C68.6386 5.604 68.5946 6.11 68.5066 6.594H60.9386C60.9533 9.65934 62.31 11.192 65.0086 11.192C66.094 11.192 67.1426 10.9573 68.1546 10.488V11.522ZM64.3926 1.556C63.3953 1.556 62.5813 1.92267 61.9506 2.656C61.32 3.38934 60.9826 4.372 60.9386 5.604H67.3626C67.392 5.36934 67.4066 5.164 67.4066 4.988C67.4066 3.90267 67.1426 3.05934 66.6146 2.458C66.0866 1.85667 65.346 1.556 64.3926 1.556Z" fill="#013D5B"/>
<path d="M48.142 16.824V0.918003L49.264 0.808002L49.352 1.578C50.5986 0.874003 51.7426 0.522003 52.784 0.522003C54.2213 0.522003 55.3506 1.028 56.172 2.04C56.9933 3.03733 57.404 4.42334 57.404 6.198C57.404 8.14867 56.9346 9.64467 55.996 10.686C55.072 11.7273 53.73 12.248 51.97 12.248C51.0606 12.248 50.2246 12.1307 49.462 11.896V16.648L48.142 16.824ZM52.608 1.578C52.124 1.578 51.6033 1.65867 51.046 1.82C50.4886 1.98134 49.9606 2.20134 49.462 2.48V10.84C50.2246 11.0747 51.024 11.192 51.86 11.192C53.268 11.192 54.3093 10.7887 54.984 9.982C55.6733 9.16067 56.018 7.90667 56.018 6.22C56.018 4.70933 55.7246 3.558 55.138 2.766C54.566 1.974 53.7226 1.578 52.608 1.578Z" fill="#013D5B"/>
<path d="M40.3322 12.248C38.7335 12.248 37.5235 11.7567 36.7022 10.774C35.8955 9.77667 35.4922 8.31 35.4922 6.374C35.4922 4.45267 35.8955 3.00067 36.7022 2.018C37.5235 1.02067 38.7335 0.522003 40.3322 0.522003C41.9309 0.522003 43.1335 1.02067 43.9402 2.018C44.7615 3.00067 45.1722 4.45267 45.1722 6.374C45.1722 8.31 44.7615 9.77667 43.9402 10.774C43.1335 11.7567 41.9309 12.248 40.3322 12.248ZM40.3322 11.192C41.5349 11.192 42.4075 10.8107 42.9502 10.048C43.5075 9.27067 43.7862 8.046 43.7862 6.374C43.7862 4.71667 43.5075 3.50667 42.9502 2.744C42.4075 1.96667 41.5349 1.578 40.3322 1.578C39.1295 1.578 38.2495 1.96667 37.6922 2.744C37.1495 3.50667 36.8782 4.71667 36.8782 6.374C36.8782 8.046 37.1495 9.27067 37.6922 10.048C38.2495 10.8107 39.1295 11.192 40.3322 11.192Z" fill="#013D5B"/>
<path d="M27.2913 11.522C26.2793 12.006 25.194 12.248 24.0353 12.248C22.3487 12.248 21.0507 11.7493 20.1413 10.752C19.232 9.75467 18.7773 8.32467 18.7773 6.462C18.7773 4.614 19.2027 3.162 20.0533 2.106C20.904 1.05 22.07 0.522003 23.5513 0.522003C24.8567 0.522003 25.8833 0.932668 26.6313 1.754C27.394 2.56067 27.7753 3.668 27.7753 5.076C27.7753 5.604 27.7313 6.11 27.6433 6.594H20.0753C20.09 9.65934 21.4467 11.192 24.1453 11.192C25.2307 11.192 26.2793 10.9573 27.2913 10.488V11.522ZM23.5293 1.556C22.532 1.556 21.718 1.92267 21.0873 2.656C20.4567 3.38934 20.1193 4.372 20.0753 5.604H26.4993C26.5287 5.36934 26.5433 5.164 26.5433 4.988C26.5433 3.90267 26.2793 3.05934 25.7513 2.458C25.2233 1.85667 24.4827 1.556 23.5293 1.556Z" fill="#013D5B"/>
<path d="M12.1556 11.918V0.918015L13.2776 0.808014L13.3876 1.79802C14.3703 0.991348 15.419 0.588013 16.5336 0.588013C16.9296 0.588013 17.245 0.632012 17.4796 0.720013V1.79802C17.0983 1.71002 16.761 1.66602 16.4676 1.66602C15.4263 1.66602 14.429 2.04001 13.4756 2.78801V11.918H12.1556Z" fill="#013D5B"/>
<path d="M7.502 11.962L7.414 11.192C6.15267 11.896 4.906 12.248 3.674 12.248C2.54467 12.248 1.65 11.9547 0.989998 11.368C0.329998 10.7667 0 9.94534 0 8.904C0 7.804 0.366665 6.968 1.1 6.396C1.848 5.80934 2.94067 5.516 4.378 5.516C5.24333 5.516 6.226 5.61867 7.326 5.824V4.328C7.326 2.49467 6.292 1.578 4.224 1.578C3.68133 1.578 3.08733 1.65134 2.442 1.798C1.79666 1.94467 1.20267 2.13534 0.66 2.37V1.336C1.188 1.08667 1.78933 0.888671 2.464 0.742004C3.15333 0.595338 3.806 0.522003 4.422 0.522003C5.80066 0.522003 6.842 0.852001 7.546 1.512C8.26466 2.15733 8.624 3.096 8.624 4.328V11.852L7.502 11.962ZM3.982 11.192C4.51 11.192 5.06733 11.1113 5.654 10.95C6.24067 10.7887 6.798 10.5687 7.326 10.29V6.77C6.402 6.594 5.49267 6.506 4.598 6.506C3.46867 6.506 2.64733 6.69667 2.134 7.078C1.62067 7.45934 1.364 8.06067 1.364 8.882C1.364 10.422 2.23667 11.192 3.982 11.192Z" fill="#013D5B"/>
</svg>
