<svg width="178" height="21" viewBox="0 0 178 21" fill="none" xmlns="http://www.w3.org/2000/svg">
<path d="M176.175 14.504V4.78799C176.175 2.49199 175.008 1.34399 172.675 1.34399C172.059 1.34399 171.377 1.44667 170.631 1.652C169.903 1.85733 169.184 2.13733 168.475 2.492V14.504H166.795V0.503998L168.223 0.363998L168.335 1.34399C169.959 0.447995 171.545 0 173.095 0C174.607 0 175.773 0.391995 176.595 1.17599C177.435 1.95999 177.855 3.07066 177.855 4.508V14.504H176.175Z" fill="#013D5B"/>
<path d="M162.433 14C161.145 14.616 159.764 14.924 158.289 14.924C156.142 14.924 154.491 14.2893 153.333 13.02C152.176 11.7507 151.597 9.93066 151.597 7.56C151.597 5.208 152.139 3.36 153.221 2.016C154.304 0.671999 155.788 0 157.673 0C159.335 0 160.641 0.522668 161.593 1.568C162.564 2.59467 163.049 4.004 163.049 5.796C163.049 6.468 162.993 7.112 162.881 7.728H153.249C153.268 11.6293 154.995 13.58 158.429 13.58C159.811 13.58 161.145 13.2813 162.433 12.684V14ZM157.645 1.31599C156.376 1.31599 155.34 1.78266 154.537 2.716C153.734 3.64933 153.305 4.89999 153.249 6.46799H161.425C161.463 6.16933 161.481 5.908 161.481 5.684C161.481 4.30266 161.145 3.22933 160.473 2.464C159.801 1.69866 158.859 1.31599 157.645 1.31599Z" fill="#013D5B"/>
<path d="M143.162 14.504L137.842 0.420013H139.606L144.002 12.712L148.538 0.420013H150.218L144.786 14.504H143.162Z" fill="#013D5B"/>
<path d="M135.609 14C134.321 14.616 132.94 14.924 131.465 14.924C129.318 14.924 127.666 14.2893 126.509 13.02C125.352 11.7507 124.773 9.93066 124.773 7.56C124.773 5.208 125.314 3.36 126.397 2.016C127.48 0.671999 128.964 0 130.849 0C132.51 0 133.817 0.522668 134.769 1.568C135.74 2.59467 136.225 4.004 136.225 5.796C136.225 6.468 136.169 7.112 136.057 7.728H126.425C126.444 11.6293 128.17 13.58 131.605 13.58C132.986 13.58 134.321 13.2813 135.609 12.684V14ZM130.821 1.31599C129.552 1.31599 128.516 1.78266 127.713 2.716C126.91 3.64933 126.481 4.89999 126.425 6.46799H134.601C134.638 6.16933 134.657 5.908 134.657 5.684C134.657 4.30266 134.321 3.22933 133.649 2.464C132.977 1.69866 132.034 1.31599 130.821 1.31599Z" fill="#013D5B"/>
<path d="M112.273 12.656C113.673 13.272 115.12 13.58 116.613 13.58C119.133 13.58 120.393 12.6 120.393 10.64C120.393 10.0053 120.206 9.492 119.833 9.1C119.478 8.708 118.881 8.38133 118.041 8.12L115.913 7.448C114.718 7.07466 113.85 6.608 113.309 6.048C112.768 5.46933 112.497 4.74133 112.497 3.864C112.497 2.688 112.954 1.75466 113.869 1.064C114.802 0.354662 116.053 0 117.621 0C118.946 0 120.206 0.251997 121.401 0.755997V2.072C120.15 1.58667 118.918 1.34399 117.705 1.34399C116.604 1.34399 115.736 1.568 115.101 2.016C114.485 2.44533 114.177 3.04267 114.177 3.808C114.177 4.34933 114.345 4.788 114.681 5.124C115.036 5.44133 115.661 5.74933 116.557 6.048L118.769 6.776C119.908 7.14933 120.738 7.64399 121.261 8.25999C121.802 8.87599 122.073 9.66 122.073 10.612C122.073 11.9933 121.606 13.0573 120.673 13.804C119.74 14.5507 118.424 14.924 116.725 14.924C115.157 14.924 113.748 14.6347 112.497 14.056L112.273 12.656Z" fill="#013D5B"/>
<path d="M100.484 14.532V4.81599C100.484 2.51999 99.3171 1.37199 96.9837 1.37199C96.3677 1.37199 95.6864 1.47465 94.9398 1.67999C94.2118 1.88532 93.4931 2.16532 92.7838 2.51999V14.532H91.1038V0.531986L92.5318 0.391987L92.6438 1.37199C94.2678 0.475987 95.8544 0.0279846 97.4038 0.0279846C98.9158 0.0279846 100.082 0.419987 100.904 1.20399C101.744 1.98799 102.164 3.09865 102.164 4.53598V14.532H100.484Z" fill="#013D5B"/>
<path d="M86.7423 14.028C85.4543 14.644 84.0729 14.952 82.5983 14.952C80.4516 14.952 78.7996 14.3173 77.6423 13.048C76.4849 11.7787 75.9062 9.95865 75.9062 7.58799C75.9062 5.23599 76.4476 3.38799 77.5303 2.04399C78.6129 0.699987 80.0969 0.0279846 81.9823 0.0279846C83.6436 0.0279846 84.9503 0.550652 85.9023 1.59599C86.8729 2.62265 87.3583 4.03199 87.3583 5.82399C87.3583 6.49599 87.3023 7.13999 87.1903 7.75599H77.5583C77.5769 11.6573 79.3036 13.608 82.7383 13.608C84.1196 13.608 85.4543 13.3093 86.7423 12.712V14.028ZM81.9543 1.34399C80.6849 1.34399 79.6489 1.81065 78.8463 2.74398C78.0436 3.67732 77.6143 4.92799 77.5583 6.49599H85.7343C85.7716 6.19732 85.7903 5.93599 85.7903 5.71199C85.7903 4.33065 85.4543 3.25732 84.7823 2.49199C84.1103 1.72665 83.1676 1.34399 81.9543 1.34399Z" fill="#013D5B"/>
<path d="M61.2717 20.776V0.531986L62.6997 0.391987L62.8117 1.37199C64.3984 0.475987 65.8544 0.0279846 67.1797 0.0279846C69.0091 0.0279846 70.4464 0.671984 71.4917 1.95998C72.5371 3.22932 73.0597 4.99332 73.0597 7.25199C73.0597 9.73465 72.4624 11.6387 71.2677 12.964C70.0917 14.2893 68.3837 14.952 66.1437 14.952C64.9864 14.952 63.9224 14.8027 62.9517 14.504V20.552L61.2717 20.776ZM66.9557 1.37199C66.3397 1.37199 65.6771 1.47465 64.9677 1.67999C64.2584 1.88532 63.5864 2.16532 62.9517 2.51999V13.16C63.9224 13.4587 64.9397 13.608 66.0037 13.608C67.7957 13.608 69.1211 13.0947 69.9797 12.068C70.8571 11.0227 71.2957 9.42665 71.2957 7.27999C71.2957 5.35732 70.9224 3.89199 70.1757 2.88399C69.4477 1.87599 68.3744 1.37199 66.9557 1.37199Z" fill="#013D5B"/>
<path d="M51.3319 14.952C49.2972 14.952 47.7572 14.3267 46.7119 13.076C45.6852 11.8067 45.1719 9.93999 45.1719 7.47599C45.1719 5.03065 45.6852 3.18265 46.7119 1.93198C47.7572 0.662651 49.2972 0.0279846 51.3319 0.0279846C53.3665 0.0279846 54.8972 0.662651 55.9239 1.93198C56.9692 3.18265 57.4919 5.03065 57.4919 7.47599C57.4919 9.93999 56.9692 11.8067 55.9239 13.076C54.8972 14.3267 53.3665 14.952 51.3319 14.952ZM51.3319 13.608C52.8625 13.608 53.9732 13.1227 54.6639 12.152C55.3732 11.1627 55.7279 9.60399 55.7279 7.47599C55.7279 5.36665 55.3732 3.82665 54.6639 2.85598C53.9732 1.86665 52.8625 1.37199 51.3319 1.37199C49.8012 1.37199 48.6812 1.86665 47.9719 2.85598C47.2812 3.82665 46.9359 5.36665 46.9359 7.47599C46.9359 9.60399 47.2812 11.1627 47.9719 12.152C48.6812 13.1227 49.8012 13.608 51.3319 13.608Z" fill="#013D5B"/>
<path d="M34.7344 14.028C33.4464 14.644 32.0651 14.952 30.5904 14.952C28.4438 14.952 26.7918 14.3173 25.6344 13.048C24.4771 11.7787 23.8984 9.95865 23.8984 7.58799C23.8984 5.23599 24.4398 3.38799 25.5224 2.04399C26.6051 0.699987 28.0891 0.0279846 29.9744 0.0279846C31.6358 0.0279846 32.9424 0.550652 33.8944 1.59599C34.8651 2.62265 35.3504 4.03199 35.3504 5.82399C35.3504 6.49599 35.2944 7.13999 35.1824 7.75599H25.5504C25.5691 11.6573 27.2958 13.608 30.7304 13.608C32.1118 13.608 33.4464 13.3093 34.7344 12.712V14.028ZM29.9464 1.34399C28.6771 1.34399 27.6411 1.81065 26.8384 2.74398C26.0358 3.67732 25.6064 4.92799 25.5504 6.49599H33.7264C33.7638 6.19732 33.7824 5.93599 33.7824 5.71199C33.7824 4.33065 33.4464 3.25732 32.7744 2.49199C32.1024 1.72665 31.1598 1.34399 29.9464 1.34399Z" fill="#013D5B"/>
<path d="M15.4709 14.532V0.532001L16.8989 0.392002L17.0389 1.652C18.2896 0.625333 19.6243 0.112 21.043 0.112C21.547 0.112 21.9483 0.168002 22.2469 0.280003V1.652C21.7616 1.54 21.3323 1.484 20.9589 1.484C19.6336 1.484 18.3643 1.96 17.1509 2.912V14.532H15.4709Z" fill="#013D5B"/>
<path d="M9.548 14.588L9.436 13.608C7.83066 14.504 6.244 14.952 4.676 14.952C3.23867 14.952 2.1 14.5787 1.26 13.832C0.420002 13.0667 0 12.0213 0 10.696C0 9.29599 0.466668 8.23199 1.4 7.50399C2.352 6.75732 3.74267 6.38399 5.572 6.38399C6.67333 6.38399 7.924 6.51465 9.324 6.77599V4.87199C9.324 2.53865 8.008 1.37199 5.376 1.37199C4.68533 1.37199 3.92934 1.46532 3.108 1.65199C2.28667 1.83865 1.53066 2.08132 0.839996 2.37999V1.06398C1.512 0.746651 2.27733 0.494654 3.136 0.307987C4.01334 0.121321 4.844 0.0279846 5.628 0.0279846C7.38267 0.0279846 8.708 0.447987 9.604 1.28799C10.5187 2.10932 10.976 3.30399 10.976 4.87199V14.448L9.548 14.588ZM5.068 13.608C5.74 13.608 6.44933 13.5053 7.196 13.3C7.94267 13.0947 8.652 12.8147 9.324 12.46V7.97998C8.148 7.75598 6.99066 7.64399 5.852 7.64399C4.41466 7.64399 3.36933 7.88665 2.716 8.37199C2.06266 8.85732 1.736 9.62265 1.736 10.668C1.736 12.628 2.84667 13.608 5.068 13.608Z" fill="#013D5B"/>
</svg>
