<svg width="388" height="22" viewBox="0 0 388 22" fill="none" xmlns="http://www.w3.org/2000/svg">
<path d="M380.168 14.763C381.218 15.225 382.303 15.456 383.423 15.456C385.313 15.456 386.258 14.721 386.258 13.251C386.258 12.775 386.118 12.39 385.838 12.096C385.572 11.802 385.124 11.557 384.494 11.361L382.898 10.857C382.002 10.577 381.351 10.227 380.945 9.807C380.539 9.373 380.336 8.827 380.336 8.169C380.336 7.287 380.679 6.587 381.365 6.069C382.065 5.537 383.003 5.271 384.179 5.271C385.173 5.271 386.118 5.46 387.014 5.838V6.825C386.076 6.461 385.152 6.279 384.242 6.279C383.416 6.279 382.765 6.447 382.289 6.783C381.827 7.105 381.596 7.553 381.596 8.127C381.596 8.533 381.722 8.862 381.974 9.114C382.24 9.352 382.709 9.583 383.381 9.807L385.04 10.353C385.894 10.633 386.517 11.004 386.909 11.466C387.315 11.928 387.518 12.516 387.518 13.23C387.518 14.266 387.168 15.064 386.468 15.624C385.768 16.184 384.781 16.464 383.507 16.464C382.331 16.464 381.274 16.247 380.336 15.813L380.168 14.763Z" fill="#013D5B"/>
<path d="M375.486 6.552V13.272C375.486 14 375.64 14.539 375.948 14.889C376.256 15.225 376.732 15.393 377.376 15.393C377.796 15.393 378.272 15.316 378.804 15.162V16.086C378.216 16.282 377.677 16.38 377.187 16.38C376.221 16.38 375.486 16.121 374.982 15.603C374.478 15.071 374.226 14.287 374.226 13.251V6.552H372.63V5.649L374.268 5.586L374.394 2.94L375.486 2.814V5.586H378.657V6.552H375.486Z" fill="#013D5B"/>
<path d="M369.298 16.149V8.862C369.298 7.14 368.423 6.279 366.673 6.279C366.211 6.279 365.7 6.356 365.14 6.51C364.594 6.664 364.055 6.874 363.523 7.14V16.149H362.263V5.649L363.334 5.544L363.418 6.279C364.636 5.607 365.826 5.271 366.988 5.271C368.122 5.271 368.997 5.565 369.613 6.153C370.243 6.741 370.558 7.574 370.558 8.652V16.149H369.298Z" fill="#013D5B"/>
<path d="M351.789 5.586V12.873C351.789 14.595 352.636 15.456 354.33 15.456C354.792 15.456 355.296 15.379 355.842 15.225C356.402 15.071 356.948 14.861 357.48 14.595V5.586H358.74V16.086L357.669 16.191L357.585 15.456C356.367 16.128 355.177 16.464 354.015 16.464C352.909 16.464 352.048 16.17 351.432 15.582C350.83 14.98 350.529 14.147 350.529 13.083V5.586H351.789Z" fill="#013D5B"/>
<path d="M343.221 16.464C341.695 16.464 340.54 15.995 339.756 15.057C338.986 14.105 338.601 12.705 338.601 10.857C338.601 9.023 338.986 7.637 339.756 6.699C340.54 5.747 341.695 5.271 343.221 5.271C344.747 5.271 345.895 5.747 346.665 6.699C347.449 7.637 347.841 9.023 347.841 10.857C347.841 12.705 347.449 14.105 346.665 15.057C345.895 15.995 344.747 16.464 343.221 16.464ZM343.221 15.456C344.369 15.456 345.202 15.092 345.72 14.364C346.252 13.622 346.518 12.453 346.518 10.857C346.518 9.275 346.252 8.12 345.72 7.392C345.202 6.65 344.369 6.279 343.221 6.279C342.073 6.279 341.233 6.65 340.701 7.392C340.183 8.12 339.924 9.275 339.924 10.857C339.924 12.453 340.183 13.622 340.701 14.364C341.233 15.092 342.073 15.456 343.221 15.456Z" fill="#013D5B"/>
<path d="M336.792 15.771C335.868 16.233 334.86 16.464 333.768 16.464C332.284 16.464 331.136 15.981 330.324 15.015C329.526 14.049 329.127 12.67 329.127 10.878C329.127 9.086 329.526 7.707 330.324 6.741C331.136 5.761 332.284 5.271 333.768 5.271C334.818 5.271 335.812 5.502 336.75 5.964V6.951C335.77 6.517 334.818 6.3 333.894 6.3C332.76 6.3 331.899 6.685 331.311 7.455C330.737 8.225 330.45 9.366 330.45 10.878C330.45 12.376 330.737 13.51 331.311 14.28C331.899 15.05 332.76 15.435 333.894 15.435C334.846 15.435 335.812 15.218 336.792 14.784V15.771Z" fill="#013D5B"/>
<path d="M327.317 15.771C326.393 16.233 325.385 16.464 324.293 16.464C322.809 16.464 321.661 15.981 320.849 15.015C320.051 14.049 319.652 12.67 319.652 10.878C319.652 9.086 320.051 7.707 320.849 6.741C321.661 5.761 322.809 5.271 324.293 5.271C325.343 5.271 326.337 5.502 327.275 5.964V6.951C326.295 6.517 325.343 6.3 324.419 6.3C323.285 6.3 322.424 6.685 321.836 7.455C321.262 8.225 320.975 9.366 320.975 10.878C320.975 12.376 321.262 13.51 321.836 14.28C322.424 15.05 323.285 15.435 324.419 15.435C325.371 15.435 326.337 15.218 327.317 14.784V15.771Z" fill="#013D5B"/>
<path d="M315.903 16.191L315.819 15.456C314.615 16.128 313.425 16.464 312.249 16.464C311.171 16.464 310.317 16.184 309.687 15.624C309.057 15.05 308.742 14.266 308.742 13.272C308.742 12.222 309.092 11.424 309.792 10.878C310.506 10.318 311.549 10.038 312.921 10.038C313.747 10.038 314.685 10.136 315.735 10.332V8.904C315.735 7.154 314.748 6.279 312.774 6.279C312.256 6.279 311.689 6.349 311.073 6.489C310.457 6.629 309.89 6.811 309.372 7.035V6.048C309.876 5.81 310.45 5.621 311.094 5.481C311.752 5.341 312.375 5.271 312.963 5.271C314.279 5.271 315.273 5.586 315.945 6.216C316.631 6.832 316.974 7.728 316.974 8.904V16.086L315.903 16.191ZM312.543 15.456C313.047 15.456 313.579 15.379 314.139 15.225C314.699 15.071 315.231 14.861 315.735 14.595V11.235C314.853 11.067 313.985 10.983 313.131 10.983C312.053 10.983 311.269 11.165 310.779 11.529C310.289 11.893 310.044 12.467 310.044 13.251C310.044 14.721 310.877 15.456 312.543 15.456Z" fill="#013D5B"/>
<path d="M295.96 21.042C294.714 21.042 293.657 20.825 292.789 20.391L292.621 19.32C293.769 19.796 294.861 20.034 295.897 20.034C298.235 20.034 299.404 18.949 299.404 16.779V15.33C298.872 15.624 298.326 15.855 297.766 16.023C297.22 16.191 296.709 16.275 296.233 16.275C294.861 16.275 293.783 15.813 292.999 14.889C292.215 13.965 291.823 12.684 291.823 11.046C291.823 9.184 292.264 7.756 293.146 6.762C294.042 5.768 295.33 5.271 297.01 5.271C298.284 5.271 299.502 5.495 300.664 5.943V16.674C300.664 18.074 300.258 19.152 299.446 19.908C298.634 20.664 297.472 21.042 295.96 21.042ZM296.401 15.267C296.863 15.267 297.36 15.19 297.892 15.036C298.424 14.882 298.928 14.672 299.404 14.406V6.615C298.676 6.391 297.913 6.279 297.115 6.279C295.771 6.279 294.77 6.671 294.112 7.455C293.468 8.225 293.146 9.415 293.146 11.025C293.146 12.411 293.419 13.468 293.965 14.196C294.525 14.91 295.337 15.267 296.401 15.267Z" fill="#013D5B"/>
<path d="M287.882 16.149V8.862C287.882 7.14 287.007 6.279 285.257 6.279C284.795 6.279 284.284 6.356 283.724 6.51C283.178 6.664 282.639 6.874 282.107 7.14V16.149H280.847V5.649L281.918 5.544L282.002 6.279C283.22 5.607 284.41 5.271 285.572 5.271C286.706 5.271 287.581 5.565 288.197 6.153C288.827 6.741 289.142 7.574 289.142 8.652V16.149H287.882Z" fill="#013D5B"/>
<path d="M276.069 16.149V5.691L277.329 5.523V16.149H276.069ZM276.699 3.024C276.419 3.024 276.188 2.94 276.006 2.772C275.838 2.604 275.754 2.373 275.754 2.079C275.754 1.785 275.838 1.554 276.006 1.386C276.188 1.218 276.419 1.134 276.699 1.134C276.979 1.134 277.203 1.218 277.371 1.386C277.553 1.554 277.644 1.785 277.644 2.079C277.644 2.373 277.553 2.604 277.371 2.772C277.203 2.94 276.979 3.024 276.699 3.024Z" fill="#013D5B"/>
<path d="M266.41 16.149V0.377999L267.67 0.209999V10.269L272.626 5.586H274.117L268.93 10.5L274.285 16.149H272.689L267.67 10.815V16.149H266.41Z" fill="#013D5B"/>
<path d="M263.702 15.771C262.778 16.233 261.77 16.464 260.678 16.464C259.194 16.464 258.046 15.981 257.234 15.015C256.436 14.049 256.037 12.67 256.037 10.878C256.037 9.086 256.436 7.707 257.234 6.741C258.046 5.761 259.194 5.271 260.678 5.271C261.728 5.271 262.722 5.502 263.66 5.964V6.951C262.68 6.517 261.728 6.3 260.804 6.3C259.67 6.3 258.809 6.685 258.221 7.455C257.647 8.225 257.36 9.366 257.36 10.878C257.36 12.376 257.647 13.51 258.221 14.28C258.809 15.05 259.67 15.435 260.804 15.435C261.756 15.435 262.722 15.218 263.702 14.784V15.771Z" fill="#013D5B"/>
<path d="M253.459 15.771C252.493 16.233 251.457 16.464 250.351 16.464C248.741 16.464 247.502 15.988 246.634 15.036C245.766 14.084 245.332 12.719 245.332 10.941C245.332 9.177 245.738 7.791 246.55 6.783C247.362 5.775 248.475 5.271 249.889 5.271C251.135 5.271 252.115 5.663 252.829 6.447C253.557 7.217 253.921 8.274 253.921 9.618C253.921 10.122 253.879 10.605 253.795 11.067H246.571C246.585 13.993 247.88 15.456 250.456 15.456C251.492 15.456 252.493 15.232 253.459 14.784V15.771ZM249.868 6.258C248.916 6.258 248.139 6.608 247.537 7.308C246.935 8.008 246.613 8.946 246.571 10.122H252.703C252.731 9.898 252.745 9.702 252.745 9.534C252.745 8.498 252.493 7.693 251.989 7.119C251.485 6.545 250.778 6.258 249.868 6.258Z" fill="#013D5B"/>
<path d="M234.356 16.149V0.377999L235.616 0.209999V6.237C236.792 5.593 237.947 5.271 239.081 5.271C240.215 5.271 241.09 5.565 241.706 6.153C242.336 6.741 242.651 7.574 242.651 8.652V16.149H241.391V8.862C241.391 7.14 240.516 6.279 238.766 6.279C238.304 6.279 237.793 6.356 237.233 6.51C236.687 6.664 236.148 6.874 235.616 7.14V16.149H234.356Z" fill="#013D5B"/>
<path d="M231.648 15.771C230.724 16.233 229.716 16.464 228.624 16.464C227.14 16.464 225.992 15.981 225.18 15.015C224.382 14.049 223.983 12.67 223.983 10.878C223.983 9.086 224.382 7.707 225.18 6.741C225.992 5.761 227.14 5.271 228.624 5.271C229.674 5.271 230.668 5.502 231.606 5.964V6.951C230.626 6.517 229.674 6.3 228.75 6.3C227.616 6.3 226.755 6.685 226.167 7.455C225.593 8.225 225.306 9.366 225.306 10.878C225.306 12.376 225.593 13.51 226.167 14.28C226.755 15.05 227.616 15.435 228.75 15.435C229.702 15.435 230.668 15.218 231.648 14.784V15.771Z" fill="#013D5B"/>
<path d="M214.792 16.149V8.862C214.792 7.14 213.917 6.279 212.167 6.279C211.705 6.279 211.194 6.356 210.634 6.51C210.088 6.664 209.549 6.874 209.017 7.14V16.149H207.757V5.649L208.828 5.544L208.912 6.279C210.13 5.607 211.32 5.271 212.482 5.271C213.616 5.271 214.491 5.565 215.107 6.153C215.737 6.741 216.052 7.574 216.052 8.652V16.149H214.792Z" fill="#013D5B"/>
<path d="M200.302 16.464C198.776 16.464 197.621 15.995 196.837 15.057C196.067 14.105 195.682 12.705 195.682 10.857C195.682 9.023 196.067 7.637 196.837 6.699C197.621 5.747 198.776 5.271 200.302 5.271C201.828 5.271 202.976 5.747 203.746 6.699C204.53 7.637 204.922 9.023 204.922 10.857C204.922 12.705 204.53 14.105 203.746 15.057C202.976 15.995 201.828 16.464 200.302 16.464ZM200.302 15.456C201.45 15.456 202.283 15.092 202.801 14.364C203.333 13.622 203.599 12.453 203.599 10.857C203.599 9.275 203.333 8.12 202.801 7.392C202.283 6.65 201.45 6.279 200.302 6.279C199.154 6.279 198.314 6.65 197.782 7.392C197.264 8.12 197.005 9.275 197.005 10.857C197.005 12.453 197.264 13.622 197.782 14.364C198.314 15.092 199.154 15.456 200.302 15.456Z" fill="#013D5B"/>
<path d="M181.057 14.763C182.107 15.225 183.192 15.456 184.312 15.456C186.202 15.456 187.147 14.721 187.147 13.251C187.147 12.775 187.007 12.39 186.727 12.096C186.461 11.802 186.013 11.557 185.383 11.361L183.787 10.857C182.891 10.577 182.24 10.227 181.834 9.807C181.428 9.373 181.225 8.827 181.225 8.169C181.225 7.287 181.568 6.587 182.254 6.069C182.954 5.537 183.892 5.271 185.068 5.271C186.062 5.271 187.007 5.46 187.903 5.838V6.825C186.965 6.461 186.041 6.279 185.131 6.279C184.305 6.279 183.654 6.447 183.178 6.783C182.716 7.105 182.485 7.553 182.485 8.127C182.485 8.533 182.611 8.862 182.863 9.114C183.129 9.352 183.598 9.583 184.27 9.807L185.929 10.353C186.783 10.633 187.406 11.004 187.798 11.466C188.204 11.928 188.407 12.516 188.407 13.23C188.407 14.266 188.057 15.064 187.357 15.624C186.657 16.184 185.67 16.464 184.396 16.464C183.22 16.464 182.163 16.247 181.225 15.813L181.057 14.763Z" fill="#013D5B"/>
<path d="M177.23 16.149V8.652C177.23 7.07 176.481 6.279 174.983 6.279C174.115 6.279 173.121 6.594 172.001 7.224C172.113 7.602 172.169 8.008 172.169 8.442V16.149H170.909V8.652C170.909 7.07 170.16 6.279 168.662 6.279C167.822 6.279 166.884 6.566 165.848 7.14V16.149H164.588V5.649L165.659 5.544L165.743 6.279C166.933 5.607 168.011 5.271 168.977 5.271C170.209 5.271 171.098 5.677 171.644 6.489C173.002 5.677 174.22 5.271 175.298 5.271C176.32 5.271 177.104 5.544 177.65 6.09C178.21 6.636 178.49 7.42 178.49 8.442V16.149H177.23Z" fill="#013D5B"/>
<path d="M154.114 5.586V12.873C154.114 14.595 154.961 15.456 156.655 15.456C157.117 15.456 157.621 15.379 158.167 15.225C158.727 15.071 159.273 14.861 159.805 14.595V5.586H161.065V16.086L159.994 16.191L159.91 15.456C158.692 16.128 157.502 16.464 156.34 16.464C155.234 16.464 154.373 16.17 153.757 15.582C153.155 14.98 152.854 14.147 152.854 13.083V5.586H154.114Z" fill="#013D5B"/>
<path d="M148.355 16.149V8.652C148.355 7.07 147.606 6.279 146.108 6.279C145.24 6.279 144.246 6.594 143.126 7.224C143.238 7.602 143.294 8.008 143.294 8.442V16.149H142.034V8.652C142.034 7.07 141.285 6.279 139.787 6.279C138.947 6.279 138.009 6.566 136.973 7.14V16.149H135.713V5.649L136.784 5.544L136.868 6.279C138.058 5.607 139.136 5.271 140.102 5.271C141.334 5.271 142.223 5.677 142.769 6.489C144.127 5.677 145.345 5.271 146.423 5.271C147.445 5.271 148.229 5.544 148.775 6.09C149.335 6.636 149.615 7.42 149.615 8.442V16.149H148.355Z" fill="#013D5B"/>
<path d="M130.935 16.149V5.691L132.195 5.523V16.149H130.935ZM131.565 3.024C131.285 3.024 131.054 2.94 130.872 2.772C130.704 2.604 130.62 2.373 130.62 2.079C130.62 1.785 130.704 1.554 130.872 1.386C131.054 1.218 131.285 1.134 131.565 1.134C131.845 1.134 132.069 1.218 132.237 1.386C132.419 1.554 132.51 1.785 132.51 2.079C132.51 2.373 132.419 2.604 132.237 2.772C132.069 2.94 131.845 3.024 131.565 3.024Z" fill="#013D5B"/>
<path d="M126.301 16.149V8.862C126.301 7.14 125.426 6.279 123.676 6.279C123.214 6.279 122.703 6.356 122.143 6.51C121.597 6.664 121.058 6.874 120.526 7.14V16.149H119.266V5.649L120.337 5.544L120.421 6.279C121.639 5.607 122.829 5.271 123.991 5.271C125.125 5.271 126 5.565 126.616 6.153C127.246 6.741 127.561 7.574 127.561 8.652V16.149H126.301Z" fill="#013D5B"/>
<path d="M114.488 16.149V5.691L115.748 5.523V16.149H114.488ZM115.118 3.024C114.838 3.024 114.607 2.94 114.425 2.772C114.257 2.604 114.173 2.373 114.173 2.079C114.173 1.785 114.257 1.554 114.425 1.386C114.607 1.218 114.838 1.134 115.118 1.134C115.398 1.134 115.622 1.218 115.79 1.386C115.972 1.554 116.063 1.785 116.063 2.079C116.063 2.373 115.972 2.604 115.79 2.772C115.622 2.94 115.398 3.024 115.118 3.024Z" fill="#013D5B"/>
<path d="M109.842 16.149V8.652C109.842 7.07 109.093 6.279 107.595 6.279C106.727 6.279 105.733 6.594 104.613 7.224C104.725 7.602 104.781 8.008 104.781 8.442V16.149H103.521V8.652C103.521 7.07 102.772 6.279 101.274 6.279C100.434 6.279 99.4956 6.566 98.4596 7.14V16.149H97.1996V5.649L98.2706 5.544L98.3546 6.279C99.5446 5.607 100.623 5.271 101.589 5.271C102.821 5.271 103.71 5.677 104.256 6.489C105.614 5.677 106.832 5.271 107.91 5.271C108.932 5.271 109.716 5.544 110.262 6.09C110.822 6.636 111.102 7.42 111.102 8.442V16.149H109.842Z" fill="#013D5B"/>
<path d="M84.7309 16.149V5.649L85.8019 5.544L85.9069 6.489C86.8449 5.719 87.8459 5.334 88.9099 5.334C89.2879 5.334 89.5889 5.376 89.8129 5.46V6.489C89.4489 6.405 89.1269 6.363 88.8469 6.363C87.8529 6.363 86.9009 6.72 85.9909 7.434V16.149H84.7309Z" fill="#013D5B"/>
<path d="M77.2761 16.464C75.7501 16.464 74.5951 15.995 73.8111 15.057C73.0411 14.105 72.6561 12.705 72.6561 10.857C72.6561 9.023 73.0411 7.637 73.8111 6.699C74.5951 5.747 75.7501 5.271 77.2761 5.271C78.8021 5.271 79.9501 5.747 80.7201 6.699C81.5041 7.637 81.8961 9.023 81.8961 10.857C81.8961 12.705 81.5041 14.105 80.7201 15.057C79.9501 15.995 78.8021 16.464 77.2761 16.464ZM77.2761 15.456C78.4241 15.456 79.2571 15.092 79.7751 14.364C80.3071 13.622 80.5731 12.453 80.5731 10.857C80.5731 9.275 80.3071 8.12 79.7751 7.392C79.2571 6.65 78.4241 6.279 77.2761 6.279C76.1281 6.279 75.2881 6.65 74.7561 7.392C74.2381 8.12 73.9791 9.275 73.9791 10.857C73.9791 12.453 74.2381 13.622 74.7561 14.364C75.2881 15.092 76.1281 15.456 77.2761 15.456Z" fill="#013D5B"/>
<path d="M58.0311 14.763C59.0811 15.225 60.1661 15.456 61.2861 15.456C63.1761 15.456 64.1211 14.721 64.1211 13.251C64.1211 12.775 63.981 12.39 63.701 12.096C63.435 11.802 62.9871 11.557 62.3571 11.361L60.7611 10.857C59.8651 10.577 59.2141 10.227 58.8081 9.807C58.4021 9.373 58.1991 8.827 58.1991 8.169C58.1991 7.287 58.5421 6.587 59.2281 6.069C59.9281 5.537 60.8661 5.271 62.0421 5.271C63.0361 5.271 63.9811 5.46 64.8771 5.838V6.825C63.9391 6.461 63.015 6.279 62.105 6.279C61.279 6.279 60.6281 6.447 60.1521 6.783C59.6901 7.105 59.4591 7.553 59.4591 8.127C59.4591 8.533 59.5851 8.862 59.8371 9.114C60.1031 9.352 60.5721 9.583 61.2441 9.807L62.9031 10.353C63.7571 10.633 64.38 11.004 64.772 11.466C65.178 11.928 65.3811 12.516 65.3811 13.23C65.3811 14.266 65.0311 15.064 64.3311 15.624C63.6311 16.184 62.6441 16.464 61.3701 16.464C60.1941 16.464 59.1371 16.247 58.1991 15.813L58.0311 14.763Z" fill="#013D5B"/>
<path d="M55.579 15.771C54.613 16.233 53.577 16.464 52.471 16.464C50.861 16.464 49.622 15.988 48.754 15.036C47.886 14.084 47.452 12.719 47.452 10.941C47.452 9.177 47.858 7.791 48.67 6.783C49.482 5.775 50.595 5.271 52.009 5.271C53.255 5.271 54.235 5.663 54.949 6.447C55.677 7.217 56.041 8.274 56.041 9.618C56.041 10.122 55.999 10.605 55.915 11.067H48.691C48.705 13.993 50 15.456 52.576 15.456C53.612 15.456 54.613 15.232 55.579 14.784V15.771ZM51.988 6.258C51.036 6.258 50.259 6.608 49.657 7.308C49.055 8.008 48.733 8.946 48.691 10.122H54.823C54.851 9.898 54.865 9.702 54.865 9.534C54.865 8.498 54.613 7.693 54.109 7.119C53.605 6.545 52.898 6.258 51.988 6.258Z" fill="#013D5B"/>
<path d="M44.8739 15.771C43.9079 16.233 42.8719 16.464 41.7659 16.464C40.1559 16.464 38.9169 15.988 38.0489 15.036C37.1809 14.084 36.7469 12.719 36.7469 10.941C36.7469 9.177 37.1529 7.791 37.9649 6.783C38.7769 5.775 39.8899 5.271 41.3039 5.271C42.5499 5.271 43.5299 5.663 44.2439 6.447C44.9719 7.217 45.3359 8.274 45.3359 9.618C45.3359 10.122 45.2939 10.605 45.2099 11.067H37.9859C37.9999 13.993 39.2949 15.456 41.8709 15.456C42.9069 15.456 43.9079 15.232 44.8739 14.784V15.771ZM41.2829 6.258C40.3309 6.258 39.5539 6.608 38.9519 7.308C38.3499 8.008 38.0279 8.946 37.9859 10.122H44.1179C44.1459 9.898 44.1599 9.702 44.1599 9.534C44.1599 8.498 43.9079 7.693 43.4039 7.119C42.8999 6.545 42.1929 6.258 41.2829 6.258Z" fill="#013D5B"/>
<path d="M31.2124 16.149V6.552H29.6164V5.649L31.2124 5.586V3.213C31.2124 2.177 31.4644 1.386 31.9684 0.840001C32.4864 0.28 33.2354 0 34.2154 0C34.7474 0 35.2864 0.0980002 35.8324 0.294V1.218C35.3284 1.064 34.8454 0.987 34.3834 0.987C33.7254 0.987 33.2424 1.162 32.9344 1.512C32.6264 1.848 32.4724 2.38 32.4724 3.108V5.586H35.3074V6.552H32.4724V16.149H31.2124Z" fill="#013D5B"/>
<path d="M18.2136 16.464C16.6876 16.464 15.5326 15.995 14.7486 15.057C13.9786 14.105 13.5936 12.705 13.5936 10.857C13.5936 9.023 13.9786 7.637 14.7486 6.699C15.5326 5.747 16.6876 5.271 18.2136 5.271C19.7396 5.271 20.8876 5.747 21.6576 6.699C22.4416 7.637 22.8336 9.023 22.8336 10.857C22.8336 12.705 22.4416 14.105 21.6576 15.057C20.8876 15.995 19.7396 16.464 18.2136 16.464ZM18.2136 15.456C19.3616 15.456 20.1946 15.092 20.7126 14.364C21.2446 13.622 21.5106 12.453 21.5106 10.857C21.5106 9.275 21.2446 8.12 20.7126 7.392C20.1946 6.65 19.3616 6.279 18.2136 6.279C17.0656 6.279 16.2256 6.65 15.6936 7.392C15.1756 8.12 14.9166 9.275 14.9166 10.857C14.9166 12.453 15.1756 13.622 15.6936 14.364C16.2256 15.092 17.0656 15.456 18.2136 15.456Z" fill="#013D5B"/>
<path d="M9.156 1.449H10.437V16.149H9.177L1.281 3.633V16.149H0V1.449H1.26L9.156 13.965V1.449Z" fill="#013D5B"/>
</svg>
