<svg width="96" height="12" viewBox="0 0 96 12" fill="none" xmlns="http://www.w3.org/2000/svg">
<path d="M94.2331 8.00499V2.79998C94.2331 1.56998 93.6081 0.954987 92.3581 0.954987C92.0281 0.954987 91.6631 1.00998 91.2631 1.11998C90.8731 1.22998 90.4881 1.37998 90.1081 1.56998V8.00499H89.2081V0.504986L89.9731 0.429985L90.0331 0.954987C90.9031 0.474987 91.7531 0.234985 92.5831 0.234985C93.3931 0.234985 94.0181 0.444986 94.4581 0.864986C94.9081 1.28499 95.1331 1.87999 95.1331 2.64999V8.00499H94.2331Z" fill="#013D5B"/>
<path d="M86.8716 7.73499C86.1816 8.06499 85.4416 8.22998 84.6516 8.22998C83.5016 8.22998 82.6166 7.88999 81.9966 7.20999C81.3766 6.52999 81.0666 5.55498 81.0666 4.28498C81.0666 3.02498 81.3566 2.03499 81.9366 1.31499C82.5166 0.594987 83.3116 0.234985 84.3216 0.234985C85.2116 0.234985 85.9116 0.514986 86.4216 1.07499C86.9416 1.62499 87.2016 2.37999 87.2016 3.33998C87.2016 3.69999 87.1716 4.04498 87.1116 4.37498H81.9516C81.9616 6.46498 82.8866 7.50999 84.7266 7.50999C85.4666 7.50999 86.1816 7.34999 86.8716 7.02999V7.73499ZM84.3066 0.939987C83.6266 0.939987 83.0716 1.18999 82.6416 1.68999C82.2116 2.18999 81.9816 2.85999 81.9516 3.69999H86.3316C86.3516 3.53999 86.3616 3.39998 86.3616 3.27998C86.3616 2.53998 86.1816 1.96498 85.8216 1.55499C85.4616 1.14498 84.9566 0.939987 84.3066 0.939987Z" fill="#013D5B"/>
<path d="M76.5479 8.00502L73.6979 0.460022H74.6429L76.9979 7.04502L79.4279 0.460022H80.3279L77.4179 8.00502H76.5479Z" fill="#013D5B"/>
<path d="M72.5015 7.73499C71.8115 8.06499 71.0715 8.22998 70.2815 8.22998C69.1315 8.22998 68.2465 7.88999 67.6265 7.20999C67.0065 6.52999 66.6965 5.55498 66.6965 4.28498C66.6965 3.02498 66.9865 2.03499 67.5665 1.31499C68.1465 0.594987 68.9415 0.234985 69.9515 0.234985C70.8415 0.234985 71.5415 0.514986 72.0515 1.07499C72.5715 1.62499 72.8315 2.37999 72.8315 3.33998C72.8315 3.69999 72.8015 4.04498 72.7415 4.37498H67.5815C67.5915 6.46498 68.5165 7.50999 70.3565 7.50999C71.0965 7.50999 71.8115 7.34999 72.5015 7.02999V7.73499ZM69.9365 0.939987C69.2565 0.939987 68.7015 1.18999 68.2715 1.68999C67.8415 2.18999 67.6115 2.85999 67.5815 3.69999H71.9615C71.9815 3.53999 71.9915 3.39998 71.9915 3.27998C71.9915 2.53998 71.8115 1.96498 71.4515 1.55499C71.0915 1.14498 70.5865 0.939987 69.9365 0.939987Z" fill="#013D5B"/>
<path d="M60 7.01498C60.75 7.34498 61.525 7.50999 62.325 7.50999C63.675 7.50999 64.35 6.98499 64.35 5.93499C64.35 5.59499 64.25 5.31999 64.05 5.10999C63.86 4.89999 63.54 4.72498 63.09 4.58498L61.95 4.22499C61.31 4.02499 60.845 3.77499 60.555 3.47499C60.265 3.16499 60.12 2.77499 60.12 2.30499C60.12 1.67499 60.365 1.17499 60.855 0.804985C61.355 0.424985 62.025 0.234985 62.865 0.234985C63.575 0.234985 64.25 0.369984 64.89 0.639984V1.34499C64.22 1.08499 63.56 0.954987 62.91 0.954987C62.32 0.954987 61.855 1.07499 61.515 1.31499C61.185 1.54499 61.02 1.86499 61.02 2.27499C61.02 2.56499 61.11 2.79998 61.29 2.97998C61.48 3.14998 61.815 3.31499 62.295 3.47499L63.48 3.86499C64.09 4.06499 64.535 4.32998 64.815 4.65998C65.105 4.98998 65.25 5.40999 65.25 5.91999C65.25 6.65999 65 7.22999 64.5 7.62999C64 8.02999 63.295 8.22998 62.385 8.22998C61.545 8.22998 60.79 8.07498 60.12 7.76498L60 7.01498Z" fill="#013D5B"/>
<path d="M53.8305 7.77V2.565C53.8305 1.335 53.2055 0.719999 51.9555 0.719999C51.6255 0.719999 51.2605 0.775 50.8605 0.885C50.4705 0.995 50.0855 1.145 49.7055 1.335V7.77H48.8055V0.27L49.5705 0.195L49.6305 0.719999C50.5005 0.24 51.3505 0 52.1805 0C52.9905 0 53.6155 0.210001 54.0555 0.630001C54.5055 1.05 54.7305 1.645 54.7305 2.415V7.77H53.8305Z" fill="#013D5B"/>
<path d="M46.4691 7.5C45.7791 7.83 45.0391 7.995 44.2491 7.995C43.0991 7.995 42.2141 7.655 41.5941 6.975C40.9741 6.295 40.6641 5.32 40.6641 4.05C40.6641 2.79 40.9541 1.8 41.5341 1.08C42.1141 0.36 42.9091 0 43.9191 0C44.8091 0 45.5091 0.28 46.0191 0.84C46.5391 1.39 46.7991 2.145 46.7991 3.105C46.7991 3.465 46.7691 3.81 46.7091 4.14H41.5491C41.5591 6.23 42.4841 7.275 44.3241 7.275C45.0641 7.275 45.7791 7.115 46.4691 6.795V7.5ZM43.9041 0.705C43.2241 0.705 42.6691 0.955 42.2391 1.455C41.8091 1.955 41.5791 2.625 41.5491 3.465H45.9291C45.9491 3.305 45.9591 3.165 45.9591 3.045C45.9591 2.305 45.7791 1.73 45.4191 1.32C45.0591 0.91 44.5541 0.705 43.9041 0.705Z" fill="#013D5B"/>
<path d="M32.8241 11.115V0.27L33.5891 0.195L33.6491 0.719999C34.4991 0.24 35.2791 0 35.9891 0C36.9691 0 37.7391 0.345 38.2991 1.035C38.8591 1.715 39.1391 2.66 39.1391 3.87C39.1391 5.2 38.8191 6.22 38.1791 6.93C37.5491 7.64 36.6341 7.995 35.4341 7.995C34.8141 7.995 34.2441 7.915 33.7241 7.755V10.995L32.8241 11.115ZM35.8691 0.719999C35.5391 0.719999 35.1841 0.775 34.8041 0.885C34.4241 0.995 34.0641 1.145 33.7241 1.335V7.035C34.2441 7.195 34.7891 7.275 35.3591 7.275C36.3191 7.275 37.0291 7 37.4891 6.45C37.9591 5.89 38.1941 5.035 38.1941 3.885C38.1941 2.855 37.9941 2.07 37.5941 1.53C37.2041 0.99 36.6291 0.719999 35.8691 0.719999Z" fill="#013D5B"/>
<path d="M27.4992 7.995C26.4092 7.995 25.5842 7.66 25.0242 6.99C24.4742 6.31 24.1992 5.31 24.1992 3.99C24.1992 2.68 24.4742 1.69 25.0242 1.02C25.5842 0.340001 26.4092 0 27.4992 0C28.5892 0 29.4092 0.340001 29.9592 1.02C30.5192 1.69 30.7992 2.68 30.7992 3.99C30.7992 5.31 30.5192 6.31 29.9592 6.99C29.4092 7.66 28.5892 7.995 27.4992 7.995ZM27.4992 7.275C28.3192 7.275 28.9142 7.015 29.2842 6.495C29.6642 5.965 29.8542 5.13 29.8542 3.99C29.8542 2.86 29.6642 2.035 29.2842 1.515C28.9142 0.984999 28.3192 0.719999 27.4992 0.719999C26.6792 0.719999 26.0792 0.984999 25.6992 1.515C25.3292 2.035 25.1442 2.86 25.1442 3.99C25.1442 5.13 25.3292 5.965 25.6992 6.495C26.0792 7.015 26.6792 7.275 27.4992 7.275Z" fill="#013D5B"/>
<path d="M18.6077 7.5C17.9177 7.83 17.1777 7.995 16.3877 7.995C15.2377 7.995 14.3527 7.655 13.7327 6.975C13.1127 6.295 12.8027 5.32 12.8027 4.05C12.8027 2.79 13.0927 1.8 13.6727 1.08C14.2527 0.36 15.0477 0 16.0577 0C16.9477 0 17.6477 0.28 18.1577 0.84C18.6777 1.39 18.9377 2.145 18.9377 3.105C18.9377 3.465 18.9077 3.81 18.8477 4.14H13.6877C13.6977 6.23 14.6227 7.275 16.4627 7.275C17.2027 7.275 17.9177 7.115 18.6077 6.795V7.5ZM16.0427 0.705C15.3627 0.705 14.8077 0.955 14.3777 1.455C13.9477 1.955 13.7177 2.625 13.6877 3.465H18.0677C18.0877 3.305 18.0977 3.165 18.0977 3.045C18.0977 2.305 17.9177 1.73 17.5577 1.32C17.1977 0.91 16.6927 0.705 16.0427 0.705Z" fill="#013D5B"/>
<path d="M8.28796 7.76998V0.269983L9.05297 0.194983L9.12796 0.869984C9.79796 0.319983 10.513 0.0449829 11.273 0.0449829C11.543 0.0449829 11.758 0.0749826 11.918 0.134983V0.869984C11.658 0.809984 11.428 0.779984 11.228 0.779984C10.518 0.779984 9.83797 1.03498 9.18797 1.54498V7.76998H8.28796Z" fill="#013D5B"/>
<path d="M5.115 7.8L5.055 7.275C4.195 7.755 3.345 7.995 2.505 7.995C1.735 7.995 1.125 7.795 0.674999 7.395C0.224999 6.985 0 6.425 0 5.715C0 4.965 0.25 4.395 0.75 4.005C1.26 3.605 2.005 3.405 2.985 3.405C3.575 3.405 4.245 3.475 4.995 3.615V2.595C4.995 1.345 4.29 0.719999 2.88 0.719999C2.51 0.719999 2.105 0.770001 1.665 0.870001C1.225 0.970001 0.820001 1.1 0.450001 1.26V0.555C0.810001 0.385 1.22 0.25 1.68 0.15C2.15 0.0499997 2.595 0 3.015 0C3.955 0 4.665 0.224999 5.145 0.674999C5.635 1.115 5.88 1.755 5.88 2.595V7.725L5.115 7.8ZM2.715 7.275C3.075 7.275 3.455 7.22 3.855 7.11C4.255 7 4.635 6.85 4.995 6.66V4.26C4.365 4.14 3.745 4.08 3.135 4.08C2.365 4.08 1.805 4.21 1.455 4.47C1.105 4.73 0.93 5.14 0.93 5.7C0.93 6.75 1.525 7.275 2.715 7.275Z" fill="#013D5B"/>
</svg>
